<?xml version="1.0" standalone="no"?>
<!DOCTYPE svg PUBLIC "-//W3C//DTD SVG 20010904//EN"
 "http://www.w3.org/TR/2001/REC-SVG-20010904/DTD/svg10.dtd">
<svg version="1.0" xmlns="http://www.w3.org/2000/svg"
 width="2000.000000pt" height="2000.000000pt" viewBox="0 0 2000.000000 2000.000000"
 preserveAspectRatio="xMidYMid meet">

<g transform="translate(0.000000,2000.000000) scale(0.100000,-0.100000)"
fill="#000000" stroke="none">
<path d="M11778 19376 c-46 -16 -11 4 -1143 -651 -236 -137 -529 -306 -650
-375 -121 -70 -296 -171 -390 -225 -93 -54 -195 -113 -225 -130 -30 -17 -233
-134 -450 -260 -723 -418 -986 -569 -1360 -785 -146 -84 -393 -227 -550 -317
-408 -236 -597 -346 -740 -428 -137 -79 -1012 -584 -1260 -727 -85 -50 -276
-160 -425 -246 -148 -85 -398 -230 -555 -320 -157 -91 -375 -217 -485 -280
-769 -442 -747 -429 -811 -497 -67 -71 -115 -158 -133 -243 -8 -38 -11 -887
-11 -3062 0 -2590 -2 -3010 -14 -3010 -8 0 -16 4 -18 10 -2 5 -18 10 -36 12
-17 1 -32 6 -32 11 0 12 -69 39 -82 31 -7 -4 -8 -3 -4 4 4 8 0 12 -12 12 -10
0 -22 3 -26 8 -4 4 -11 7 -14 8 -8 1 -18 4 -72 23 -90 32 -120 39 -125 30 -4
-5 -3 -9 2 -8 21 4 43 -2 43 -12 0 -5 -5 -7 -10 -4 -6 4 -22 -1 -36 -10 -26
-17 -84 -13 -84 6 0 6 4 7 10 4 11 -7 45 9 45 22 0 4 4 7 8 5 5 -1 6 2 2 8
-10 16 -43 12 -54 -7 -9 -16 -10 -16 -11 5 0 31 -36 29 -66 -4 -19 -20 -24
-37 -26 -85 -1 -32 -2 -67 -2 -76 -1 -18 -42 -63 -56 -63 -11 0 -20 27 -20 61
0 17 -4 28 -9 25 -5 -3 -7 -15 -4 -26 7 -26 -4 -70 -18 -70 -6 0 -7 5 -4 10 3
6 3 10 -2 10 -4 0 -8 18 -8 40 0 25 5 40 12 40 17 0 27 43 20 92 -6 43 -21 67
-34 53 -5 -4 -2 -10 5 -12 6 -3 12 -9 12 -14 0 -6 -5 -7 -11 -3 -7 4 -10 1 -7
-7 3 -8 10 -13 15 -12 12 2 11 -43 -1 -54 -5 -4 -6 2 -3 15 4 16 2 22 -7 19
-15 -6 -21 60 -7 77 14 17 -14 49 -43 49 -14 0 -23 4 -20 8 3 6 -53 7 -133 4
-76 -3 -149 -6 -163 -6 -52 -1 -262 -27 -268 -34 -4 -4 11 -4 32 0 30 6 37 5
31 -5 -5 -8 -20 -10 -44 -6 -86 16 -113 18 -108 9 3 -4 -12 -7 -34 -5 -22 2
-62 -3 -89 -12 -28 -9 -61 -14 -75 -10 -16 4 -25 2 -25 -6 0 -6 3 -9 7 -7 5 3
17 1 28 -4 16 -6 14 -8 -12 -8 -18 -1 -33 3 -33 8 0 4 -10 7 -22 6 -13 -1 -31
-3 -41 -4 -10 0 -15 -6 -12 -11 4 -6 11 -8 16 -5 5 4 9 1 9 -5 0 -8 -7 -9 -17
-5 -47 19 -48 16 -46 -100 4 -243 9 -316 22 -324 9 -6 10 -10 2 -12 -8 -3 -5
-22 9 -64 25 -73 46 -106 63 -99 17 6 65 -31 54 -43 -5 -4 -17 3 -28 16 -11
13 -22 21 -26 18 -7 -8 48 -53 60 -49 5 1 6 -2 2 -8 -4 -6 18 -22 52 -37 51
-24 72 -27 183 -30 69 -1 119 0 112 3 -27 13 0 21 43 13 25 -5 81 -8 125 -8
100 1 133 -19 136 -82 1 -21 -3 -39 -8 -39 -5 0 -7 -4 -4 -9 3 -5 -10 -7 -29
-5 -32 3 -39 -2 -37 -26 0 -3 -17 -4 -39 -2 -21 2 -39 8 -39 12 0 5 16 6 35 3
24 -4 35 -2 35 7 0 8 -9 10 -27 6 -21 -5 -24 -4 -12 3 9 6 35 9 58 7 31 -2 41
0 37 10 -3 7 2 15 11 18 9 4 14 9 11 11 -3 3 -36 -5 -74 -17 -38 -12 -78 -23
-89 -25 -11 -2 -48 -12 -82 -23 -34 -11 -69 -20 -77 -20 -8 0 -17 -4 -20 -9
-4 -5 3 -7 14 -4 12 3 20 0 20 -7 0 -9 -13 -11 -49 -7 -27 3 -52 3 -55 0 -3
-4 -16 -7 -28 -9 -58 -6 -96 -35 -65 -48 6 -2 1 -4 -13 -3 -22 2 -25 -2 -28
-37 -4 -43 11 -89 71 -215 l39 -83 21 43 c12 24 29 45 37 47 13 2 13 0 -1 -10
-21 -18 -30 -46 -16 -52 9 -3 9 -5 0 -5 -7 -1 -17 -10 -23 -20 -8 -16 -4 -29
21 -66 17 -25 35 -43 40 -39 5 3 7 10 3 15 -3 5 -10 6 -16 3 -6 -4 -8 -2 -4 4
3 5 0 12 -6 15 -10 3 -9 9 3 21 15 16 16 15 15 -6 -1 -20 3 -23 37 -22 20 1
37 -2 37 -7 0 -5 -6 -9 -14 -9 -18 0 -15 -42 5 -67 13 -16 12 -17 -3 -4 -10 7
-18 10 -18 5 0 -13 67 -64 74 -57 11 12 6 22 -8 17 -8 -3 -17 0 -22 7 -4 7 -3
10 4 5 6 -3 13 -2 16 3 3 5 -1 12 -10 15 -8 3 -12 10 -9 16 4 7 12 7 24 0 13
-7 18 -19 15 -45 -3 -45 27 -66 57 -39 10 9 16 20 14 25 -3 4 -2 10 3 13 4 2
9 -8 10 -24 1 -17 -3 -27 -10 -26 -7 0 -14 -3 -15 -9 -2 -5 3 -10 10 -11 6 0
34 -10 60 -22 59 -26 268 -53 274 -35 3 7 24 10 61 7 31 -2 51 -1 45 2 -26 12
-12 24 28 24 24 0 38 -4 34 -10 -3 -5 -1 -10 4 -10 6 0 11 4 11 8 0 5 10 8 23
7 12 -1 26 0 32 3 10 6 15 7 70 10 23 2 27 4 15 12 -11 7 -4 10 28 11 56 2 59
3 69 13 5 5 2 6 -7 1 -12 -6 -13 -5 -3 5 10 11 15 11 29 -1 10 -8 15 -9 11 -2
-5 8 -1 11 11 10 32 -2 21 -26 -25 -53 -25 -14 -41 -30 -37 -36 4 -6 3 -8 -3
-5 -5 3 -37 -7 -71 -24 -34 -16 -67 -29 -72 -29 -6 0 -9 -4 -6 -9 4 -5 -4 -7
-16 -3 -15 4 -19 2 -14 -7 5 -8 3 -11 -5 -10 -21 5 -149 -33 -149 -43 0 -5 -4
-7 -9 -4 -13 8 -74 -15 -88 -33 -15 -20 -17 -61 -2 -61 6 0 8 8 4 19 -3 11 -1
22 5 26 8 5 11 -2 9 -21 -4 -33 8 -57 22 -49 5 4 12 -1 15 -10 4 -9 13 -14 21
-11 8 3 11 1 8 -4 -6 -9 8 -14 27 -11 5 0 8 -4 8 -10 0 -6 9 -9 20 -6 11 3 20
2 20 -3 0 -15 41 -19 47 -4 3 9 9 11 17 5 6 -5 27 -7 46 -5 25 3 31 1 20 -6
-8 -5 -28 -10 -44 -10 -36 0 -30 -8 10 -14 16 -2 36 -6 44 -9 21 -8 118 -27
136 -27 9 0 13 5 9 13 -4 6 0 4 8 -6 12 -15 38 -21 114 -28 133 -11 260 -11
268 1 3 6 12 10 18 10 9 0 9 -2 -1 -8 -7 -5 16 -6 50 -4 73 5 86 13 66 41 -8
12 -18 18 -23 13 -5 -4 -5 -2 -2 4 3 6 -5 17 -18 24 -13 7 -22 16 -20 20 3 4
-4 19 -15 33 -22 28 -25 37 -11 37 5 0 12 -8 15 -18 3 -9 16 -22 28 -27 13 -6
22 -17 20 -24 -2 -8 3 -11 11 -8 10 4 13 0 10 -12 -3 -13 3 -20 22 -25 17 -4
25 -12 23 -23 -2 -11 5 -19 17 -21 13 -2 16 0 8 5 -6 5 42 7 106 5 98 -3 128
0 175 17 l57 20 -46 -51 c-55 -61 -102 -158 -116 -237 -14 -76 0 -147 48 -243
62 -122 109 -160 463 -363 173 -99 364 -209 425 -244 60 -35 166 -96 235 -136
177 -102 1411 -814 1555 -898 66 -38 309 -178 540 -312 231 -133 465 -268 520
-300 55 -32 188 -109 295 -170 107 -62 292 -168 410 -237 538 -312 828 -476
860 -487 56 -19 192 -25 261 -12 68 14 122 39 264 121 50 29 189 110 310 180
121 70 366 212 545 315 387 224 622 360 745 430 50 28 150 86 223 128 72 42
189 110 260 151 70 40 273 158 452 261 179 104 402 232 495 286 94 53 211 121
260 149 50 29 194 112 320 185 127 73 300 173 385 222 85 50 317 184 515 298
198 114 419 242 490 283 72 42 274 158 449 259 176 101 325 191 333 201 12 15
13 14 8 -9 -4 -17 -1 -30 9 -38 10 -8 16 -28 15 -50 l-1 -36 -8 38 c-7 38 -16
54 -25 45 -3 -3 2 -53 12 -111 11 -68 20 -102 26 -94 5 7 6 2 3 -15 -7 -29 20
-166 35 -183 6 -5 9 -2 9 8 0 9 5 17 10 17 16 0 11 30 -6 37 -13 5 -13 7 -2
14 10 7 10 9 1 9 -7 0 -13 7 -13 16 0 8 -4 12 -10 9 -5 -3 -10 3 -10 15 0 15
5 20 18 18 9 -2 17 -12 17 -23 0 -11 4 -26 8 -32 5 -7 5 -13 0 -13 -4 0 -3 -4
3 -8 6 -4 14 -29 17 -57 6 -43 5 -47 -6 -29 -10 18 -14 19 -24 9 -15 -17 36
-174 55 -168 6 3 12 0 12 -6 0 -6 -5 -11 -11 -11 -5 0 -7 -5 -3 -11 4 -7 8
-19 9 -28 1 -9 9 -32 18 -52 8 -19 19 -48 23 -63 6 -26 5 -27 -14 -17 -42 23
-64 63 -59 109 7 63 -11 49 -63 -49 -25 -47 -67 -117 -95 -155 -46 -64 -115
-213 -115 -249 0 -25 54 -123 114 -210 65 -92 86 -152 86 -245 0 -266 169
-508 454 -649 l86 -43 0 -50 c0 -45 4 -54 35 -82 19 -18 84 -61 143 -97 146
-87 172 -112 233 -232 87 -170 225 -282 424 -346 193 -62 476 -62 599 1 98 50
133 94 141 175 l5 46 -39 -44 c-81 -93 -200 -131 -406 -133 -158 -1 -250 18
-350 73 l-70 38 1 45 c1 106 106 242 237 303 83 40 206 69 257 61 l35 -5 -45
39 c-59 51 -97 64 -182 58 -78 -6 -189 -55 -246 -108 -35 -34 -65 -36 -70 -6
-11 57 203 175 321 176 26 0 47 3 47 8 0 4 -14 20 -31 37 -28 27 -35 29 -102
29 -89 -1 -163 -28 -247 -90 -64 -47 -87 -54 -97 -28 -17 45 160 153 287 174
l72 12 -24 26 c-37 42 -39 43 -114 39 -81 -4 -167 -39 -247 -100 -52 -40 -72
-45 -81 -21 -8 21 2 37 48 73 62 49 159 92 235 104 39 6 71 14 71 18 0 3 -9
18 -20 32 -52 66 -234 30 -357 -70 -57 -47 -86 -49 -81 -5 2 19 21 38 71 72
86 59 174 90 251 90 51 0 57 2 51 18 -4 9 -18 49 -31 88 -33 101 -53 141 -81
153 -40 18 -157 13 -224 -9 -69 -24 -94 -45 -133 -113 -33 -57 -79 -82 -136
-73 -39 6 -90 54 -90 86 0 26 -17 34 -28 13 -5 -10 -12 -74 -15 -143 -2 -69
-10 -148 -16 -177 l-12 -51 -47 20 c-102 45 -218 142 -273 227 l-28 44 27 38
c58 81 172 141 293 155 38 4 59 11 56 18 -2 6 -12 34 -22 63 -18 50 -19 51
-54 47 -20 -3 -55 -10 -78 -16 -50 -12 -73 -6 -73 21 0 22 35 37 112 47 35 5
52 3 58 -5 8 -14 29 -16 143 -13 49 1 76 6 72 12 -3 5 2 9 12 8 10 0 34 0 53
2 l35 2 -39 8 c-21 4 -54 4 -74 -1 -23 -5 -31 -4 -24 3 15 15 133 23 141 10 5
-8 16 -8 44 0 20 6 34 15 31 19 -3 5 3 6 12 2 13 -5 16 -2 12 9 -5 11 0 14 20
11 l27 -3 -25 10 c-19 9 -21 13 -11 20 8 4 20 6 27 3 6 -2 15 0 19 6 3 6 12
11 18 11 7 0 4 -5 -5 -11 -10 -5 -18 -15 -18 -21 0 -12 46 15 73 43 10 11 22
19 27 19 6 0 10 5 10 11 0 5 -4 8 -9 4 -6 -3 -9 7 -9 22 1 16 1 44 0 65 -2 31
-5 35 -22 31 -17 -4 -20 -1 -19 23 l1 29 9 -25 c14 -40 1 94 -18 183 -16 75
-28 95 -35 60 -3 -15 -5 -14 -10 5 -3 12 -3 20 1 18 4 -3 6 21 6 52 -3 90 -4
102 -15 102 -5 0 -7 -7 -4 -15 9 -23 -4 -18 -17 6 -6 12 -7 19 -1 15 5 -3 12
3 15 13 6 23 -17 147 -30 164 -6 6 -11 28 -11 47 -1 28 1 32 9 17 6 -9 7 -27
4 -40 -4 -16 -3 -18 3 -7 15 23 34 128 26 141 -4 7 -3 9 3 6 7 -4 14 8 18 31
3 20 9 48 12 61 3 13 2 21 -3 18 -5 -3 -10 14 -11 36 l-1 42 12 -35 13 -35 7
50 c7 53 11 75 21 115 5 19 4 22 -4 10 -9 -12 -11 -11 -11 9 0 16 4 21 15 17
8 -3 14 -2 13 2 -1 4 4 30 11 59 7 29 10 57 6 63 -3 5 -1 10 4 10 6 0 11 9 11
21 0 11 -4 17 -10 14 -6 -3 -7 1 -4 9 3 9 10 13 15 10 5 -3 10 3 10 13 2 30 7
55 24 118 8 33 13 71 9 84 -3 13 0 27 6 31 6 4 13 22 15 41 1 19 6 43 10 54 5
16 5 17 -4 5 -6 -9 -11 -10 -11 -3 0 22 12 43 22 37 7 -4 9 10 7 40 -3 28 0
47 7 50 12 5 30 96 26 130 -1 10 3 25 9 32 6 7 8 23 4 36 -4 13 -4 20 0 16 4
-3 41 14 83 39 43 25 165 96 272 158 107 61 265 152 350 202 85 50 245 142
355 205 730 420 708 406 765 467 66 70 104 135 125 216 21 83 19 124 -11 216
-16 46 -23 83 -18 88 15 14 170 134 213 165 22 16 39 32 36 34 -7 7 26 42 39
42 6 0 0 -9 -14 -20 -14 -11 -20 -20 -14 -20 14 0 44 33 44 48 0 7 8 11 18 9
20 -2 142 73 142 88 0 6 -9 17 -20 25 -24 17 -26 30 -5 30 8 0 15 -4 15 -10 0
-5 7 -10 15 -10 8 0 15 5 15 11 0 5 5 7 10 4 6 -4 17 -1 25 5 8 7 20 10 27 7
17 -5 211 130 249 174 9 11 21 19 28 19 6 0 11 5 11 11 0 6 -6 9 -14 6 -10 -4
-13 4 -13 29 1 35 17 49 17 15 0 -10 6 -24 14 -30 11 -9 20 -5 43 23 37 46 85
134 78 146 -3 4 -1 10 3 12 13 5 23 68 11 68 -6 0 -7 5 -4 10 4 6 0 24 -9 40
-10 21 -11 32 -4 36 6 4 9 3 5 -2 -3 -5 2 -18 10 -29 14 -19 15 -18 8 15 -15
75 -84 180 -118 180 -7 0 1 -11 17 -23 16 -13 25 -26 20 -29 -11 -7 -49 21
-56 42 -4 11 -9 8 -16 -10 -10 -23 -11 -23 -11 -4 -1 12 8 25 20 30 19 9 16
12 -27 33 -26 13 -60 24 -76 23 -15 0 -26 3 -23 8 3 4 -26 11 -65 15 -72 7
-146 0 -156 -16 -3 -5 -11 -9 -17 -9 -7 0 -6 4 3 11 11 7 4 8 -25 4 -50 -8
-107 -25 -121 -36 -6 -5 -15 -5 -19 -1 -5 4 -5 2 -2 -4 4 -6 17 -10 29 -9 13
1 15 0 6 -2 -9 -2 -22 -11 -28 -19 -7 -8 -19 -14 -27 -14 -8 0 -11 -5 -8 -10
3 -6 -5 -10 -19 -10 -28 0 -42 15 -25 26 8 4 9 3 5 -4 -5 -8 -1 -10 9 -6 11 5
13 10 6 17 -6 6 -21 3 -43 -11 -18 -12 -28 -22 -23 -23 6 0 -1 -4 -15 -8 -14
-4 -24 -13 -23 -19 2 -6 -3 -9 -10 -7 -6 3 -28 -9 -47 -25 -34 -29 -34 -30
-13 -36 18 -5 20 -9 10 -18 -19 -20 -49 -16 -44 5 4 16 2 16 -24 -3 -16 -12
-29 -25 -29 -30 0 -4 -6 -8 -13 -8 -19 0 -79 -65 -70 -75 5 -4 3 -5 -4 -1 -6
3 -14 2 -17 -3 -3 -5 2 -12 11 -15 15 -6 15 -8 3 -16 -9 -5 -19 -5 -26 1 -7 6
-16 4 -24 -6 -8 -9 -9 -15 -4 -13 5 2 10 -1 11 -7 2 -5 -6 -10 -16 -10 -30 -1
-52 -25 -46 -49 4 -13 3 -17 -2 -9 -7 9 -18 3 -41 -25 -18 -20 -48 -56 -68
-80 -20 -23 -30 -41 -23 -39 8 2 11 2 6 0 -4 -3 -5 -9 -2 -14 4 -5 -1 -6 -9
-3 -10 4 -16 1 -16 -9 0 -9 -10 -23 -22 -31 -12 -9 -19 -16 -14 -16 5 0 -1 -8
-12 -19 -12 -10 -22 -23 -22 -28 0 -5 -14 -25 -30 -43 -17 -19 -28 -40 -26
-46 6 -15 -42 -28 -57 -16 -7 5 -34 22 -62 37 -155 87 -194 109 -235 134 -25
15 -103 60 -175 99 -71 39 -135 75 -141 79 -9 6 -9 28 1 88 14 90 7 130 -28
163 l-22 21 -104 -60 c-57 -32 -106 -59 -108 -59 -2 0 -99 55 -214 121 -116
67 -211 120 -212 118 -2 -2 -14 -28 -27 -58 -45 -99 -157 -181 -248 -181 -127
0 -334 109 -822 432 -146 96 -351 227 -455 290 l-190 114 3 -468 3 -468 49
-182 c28 -101 62 -229 77 -286 l28 -102 -23 -43 c-13 -24 -36 -58 -53 -76 -24
-27 -27 -36 -18 -52 10 -19 9 -20 -11 -9 -18 10 -26 7 -54 -17 -17 -16 -49
-39 -69 -52 -21 -12 -34 -27 -31 -33 4 -7 2 -8 -4 -4 -14 8 -55 -17 -45 -27
10 -11 25 -8 18 3 -3 6 -2 10 4 10 10 0 24 -18 27 -35 1 -6 -7 -11 -16 -11
-10 0 -17 3 -15 7 8 11 -41 28 -56 18 -11 -7 -9 -9 8 -9 15 0 21 -5 17 -14 -4
-9 7 -20 30 -31 40 -19 47 -35 15 -35 -11 0 -18 4 -14 9 3 5 -5 11 -17 13 -13
2 -23 8 -23 15 0 7 -6 18 -13 25 -11 11 -12 10 -6 -7 7 -17 6 -18 -8 -5 -9 8
-14 19 -11 23 3 5 -9 1 -26 -7 -31 -17 -44 -40 -16 -30 8 4 15 2 15 -4 0 -17
-24 -20 -36 -4 -9 12 -14 12 -30 3 -17 -11 -17 -12 -1 -7 10 3 16 2 12 -3 -3
-5 0 -11 7 -13 7 -3 5 -7 -6 -11 -11 -5 -15 -3 -10 5 5 7 0 9 -14 6 -12 -4
-20 -3 -17 1 2 5 -45 -11 -105 -33 -60 -23 -110 -45 -110 -50 0 -5 8 -15 18
-22 15 -12 15 -13 0 -14 -9 0 -18 5 -20 11 -3 9 -10 9 -28 0 l-25 -12 25 22
25 22 -25 -6 c-14 -4 -29 -7 -33 -7 -5 0 -5 -4 -2 -10 3 -6 -1 -7 -9 -4 -9 3
-16 2 -16 -3 0 -4 19 -17 43 -27 45 -20 203 -34 234 -21 10 4 29 9 42 11 51 7
25 19 -36 17 -7 -1 -11 3 -8 7 6 10 105 10 105 0 0 -4 15 -4 33 -2 17 3 26 7
19 9 -6 3 -9 9 -6 14 4 6 10 6 17 1 8 -6 32 -3 67 9 30 10 51 18 45 19 -56 7
-81 6 -88 -3 -6 -8 -7 -7 -4 3 4 17 28 17 162 1 44 -6 117 -13 162 -17 45 -4
87 -11 95 -15 36 -22 -70 -108 -134 -109 -26 0 -52 -20 -26 -20 24 0 113 -47
171 -90 47 -36 57 -48 57 -73 0 -26 -20 -153 -35 -224 -6 -26 -56 -53 -101
-53 -19 0 -66 11 -106 24 -40 13 -113 32 -161 42 -83 16 -97 16 -240 0 -184
-20 -236 -13 -356 44 -62 30 -92 39 -112 35 -15 -3 -30 -2 -33 3 -3 6 4 8 16
6 17 -3 16 -1 -7 11 -16 8 -47 17 -67 21 -21 4 -38 10 -38 14 0 4 -11 10 -25
12 -14 3 -25 1 -25 -3 0 -5 -9 -9 -20 -9 -11 0 -20 -4 -20 -10 0 -9 24 -14 59
-13 7 1 9 -3 5 -7 -10 -10 -96 8 -105 23 -3 5 -9 8 -13 8 -38 -5 -57 1 -54 16
2 10 12 19 22 21 11 3 16 0 12 -7 -4 -6 0 -11 11 -11 11 0 24 -5 30 -11 11
-11 53 -4 53 10 0 4 -27 17 -60 29 -34 12 -59 16 -57 10 1 -6 -4 -13 -12 -16
-8 -2 -11 0 -7 6 4 7 -3 8 -21 3 -17 -4 -46 -2 -73 6 -24 7 -51 11 -59 8 -9
-3 -12 -3 -8 2 12 11 -120 55 -173 57 -57 3 -80 -8 -75 -34 2 -11 0 -18 -6
-15 -15 10 -11 37 8 50 15 11 11 16 -33 38 -27 14 -44 26 -39 26 6 1 30 -10
53 -24 24 -14 49 -22 55 -18 6 3 7 1 3 -5 -5 -8 -1 -10 10 -5 15 5 15 7 0 15
-9 5 -24 11 -34 13 -9 2 -42 17 -72 34 -30 17 -77 34 -103 37 -38 5 -50 12
-57 30 -6 14 -35 36 -77 57 -37 19 -95 51 -128 70 -33 19 -89 52 -124 72 -35
20 -124 74 -196 121 -229 146 -252 187 -242 439 3 82 10 177 16 210 5 33 15
105 20 160 148 1372 233 1588 661 1689 90 21 540 152 546 159 1 1 4 64 6 141
l3 138 -170 100 c-267 157 -299 170 -414 176 -88 4 -161 -4 -216 -24 -12 -4 0
13 28 42 58 59 92 115 124 201 l23 64 0 1184 c0 652 -2 1185 -5 1185 -3 0 -60
-32 -128 -71 -67 -39 -170 -99 -229 -132 l-108 -62 -2 -895 -3 -895 -27 -50
c-38 -73 -87 -114 -233 -198 -71 -41 -191 -109 -265 -152 -74 -43 -250 -145
-390 -225 -223 -129 -472 -273 -800 -462 -52 -30 -115 -66 -140 -80 -25 -15
-115 -66 -200 -116 -85 -49 -256 -148 -380 -219 -192 -111 -365 -211 -965
-558 -49 -29 -214 -123 -365 -210 -151 -87 -308 -178 -348 -202 -41 -23 -76
-43 -78 -43 -2 0 -37 -20 -77 -44 -74 -44 -280 -164 -847 -491 -179 -103 -381
-220 -450 -260 -69 -40 -172 -99 -230 -132 -58 -33 -305 -176 -550 -318 -245
-141 -463 -267 -485 -280 -56 -32 -112 -64 -515 -297 -398 -230 -678 -391
-730 -420 -19 -11 -93 -54 -165 -96 -316 -184 -362 -210 -393 -226 l-32 -17 2
3443 3 3443 23 47 c13 25 38 61 56 80 35 36 44 41 481 293 160 92 319 184 355
205 123 72 818 472 880 507 19 11 208 120 420 243 212 122 484 280 605 350
121 70 369 213 550 317 653 377 921 531 1105 638 74 43 194 112 265 153 72 41
186 107 255 147 69 40 141 82 160 93 129 73 587 337 690 397 109 64 710 411
1450 838 310 178 624 360 1022 590 185 107 339 192 343 189 3 -3 5 -540 5
-1194 0 -776 3 -1189 10 -1186 5 2 111 62 235 133 l225 130 0 1270 0 1270 -24
51 c-25 55 -72 98 -171 157 -124 73 -232 99 -307 73z m6391 -10149 c1 6 17 11
36 11 20 0 35 -5 35 -11 0 -8 -16 -12 -42 -11 -34 1 -44 5 -45 20 -3 17 -2 17
6 -1 5 -11 10 -15 10 -8z m338 0 c-15 -5 -44 -4 -69 1 -41 9 -40 9 26 9 52 -1
62 -3 43 -10z m-67 -57 c0 -5 -8 -7 -17 -3 -10 3 -15 3 -12 -1 12 -13 48 -15
45 -3 -1 7 -1 9 1 4 3 -4 10 -4 16 0 7 4 7 0 -1 -9 -7 -9 -26 -16 -42 -16 -25
1 -29 8 -21 36 3 7 31 0 31 -8z m-201 -14 c-8 -8 -89 -15 -85 -7 3 4 24 8 48
10 23 1 40 0 37 -3z m-24 -26 c-3 -5 1 -10 9 -10 9 0 16 -4 16 -9 0 -11 -56
-8 -67 3 -4 5 -3 6 3 3 7 -4 17 0 24 8 14 17 24 20 15 5z m447 -19 c-22 -23
-27 -19 -11 7 7 12 16 19 21 16 4 -3 0 -13 -10 -23z m-262 -1 c0 -5 -5 -10
-11 -10 -5 0 -7 5 -4 10 3 6 8 10 11 10 2 0 4 -4 4 -10z m-500 -4 c0 -11 -19
-15 -25 -6 -3 5 1 10 9 10 9 0 16 -2 16 -4z m415 -25 c2 -12 0 -19 -5 -16 -4
3 -15 -2 -23 -10 -18 -17 -43 -20 -52 -5 -4 6 -3 10 2 9 20 -3 34 2 28 11 -4
6 -1 9 7 8 7 -2 12 3 10 10 -1 8 2 11 8 7 5 -3 10 -1 10 6 0 18 10 5 15 -20z
m365 -16 c0 -8 -4 -16 -9 -19 -5 -4 -7 4 -4 16 4 21 3 22 -10 6 -8 -10 -17
-15 -20 -11 -8 8 25 33 35 27 5 -3 8 -11 8 -19z m32 -3 c3 -11 0 -19 -7 -19
-7 0 -10 8 -7 19 2 10 6 18 7 18 1 0 5 -8 7 -18z m-312 -17 c0 -8 -4 -15 -10
-15 -5 0 -10 7 -10 15 0 8 5 15 10 15 6 0 10 -7 10 -15z m-253 -11 c-3 -3 -12
-4 -19 -1 -8 3 -5 6 6 6 11 1 17 -2 13 -5z m56 -1 c-7 -2 -19 -2 -25 0 -7 3
-2 5 12 5 14 0 19 -2 13 -5z m165 -5 c15 -15 -3 -48 -26 -48 -32 -1 -125 -47
-112 -55 19 -12 -16 -35 -52 -35 -22 0 -26 -4 -22 -17 4 -11 3 -14 -3 -7 -7
10 -52 13 -60 4 -2 -1 -6 -3 -10 -4 -5 0 -43 -24 -85 -52 -63 -41 -75 -53 -65
-64 10 -10 8 -12 -11 -7 -16 4 -34 -5 -65 -30 -44 -36 -75 -67 -47 -46 11 9
20 8 33 -2 16 -12 14 -13 -20 -10 -27 3 -44 -1 -58 -15 -71 -66 -145 -141
-145 -146 0 -3 -11 -15 -25 -25 -14 -12 -22 -26 -18 -34 4 -11 1 -13 -11 -9
-9 3 -16 1 -16 -4 0 -16 18 -24 25 -12 4 6 11 7 17 4 5 -3 -1 -12 -14 -18 -12
-7 -26 -9 -29 -4 -3 4 -18 -5 -33 -21 -25 -27 -26 -29 -10 -45 9 -9 13 -20 9
-24 -3 -4 -11 2 -17 12 -10 19 -11 19 -24 1 -12 -16 -17 -16 -44 -5 -28 11
-35 25 -31 58 3 17 -9 15 -25 -5 -13 -17 -14 -17 -7 1 4 13 3 17 -5 12 -17
-10 -14 5 4 29 16 19 16 19 10 -5 l-7 -25 14 24 c15 26 25 14 22 -26 -1 -13 0
-23 1 -23 2 0 29 33 61 72 91 114 189 218 258 276 21 17 25 25 16 36 -15 18
-4 43 22 50 21 5 21 5 3 -9 -19 -14 -19 -15 -2 -15 16 0 17 -2 5 -17 -9 -11
-3 -10 19 6 17 12 32 27 32 32 0 5 4 9 9 9 5 0 48 27 97 60 48 33 82 60 74 60
-8 0 -24 -10 -37 -22 -13 -12 -23 -19 -23 -15 0 3 12 17 27 31 20 19 31 23 44
15 15 -7 17 -6 14 10 -3 15 0 18 12 14 12 -5 14 -3 8 7 -5 9 -4 11 3 6 6 -4
24 0 39 9 22 13 23 13 8 1 -56 -42 -55 -45 5 -13 36 19 82 40 104 47 29 9 35
15 25 22 -10 7 -8 8 7 3 12 -3 32 -1 45 4 33 13 73 13 87 -1z m-584 -23 c3 -9
-3 -19 -15 -25 -11 -6 -17 -15 -14 -20 4 -6 -4 -6 -20 0 -33 12 -38 13 -30 1
6 -11 -13 -26 -22 -17 -4 3 2 15 12 26 13 15 21 17 31 9 16 -13 37 -2 30 16
-5 13 2 25 15 25 4 0 9 -7 13 -15z m396 5 c10 -6 2 -7 -25 -3 -49 7 -58 13
-19 13 16 0 36 -5 44 -10z m-296 -39 c-8 -8 -34 -10 -38 -2 -3 4 6 7 19 7 14
0 22 -2 19 -5z m512 -10 c-4 -6 -14 -7 -23 -4 -15 6 -14 7 3 13 22 9 29 6 20
-9z m-536 -20 c3 -2 -7 -2 -22 1 -15 3 -25 2 -23 -3 3 -4 2 -10 -3 -13 -13 -8
-11 28 2 36 9 6 21 0 46 -21z m127 -3 c-28 -22 -38 -23 -30 -2 5 14 2 16 -23
10 -21 -5 -25 -4 -14 3 8 6 32 9 52 8 l38 -2 -23 -17z m319 -16 c-17 -16 -18
-16 -5 5 7 12 15 20 18 17 3 -2 -3 -12 -13 -22z m-566 -13 c0 -6 -4 -7 -10 -4
-5 3 -10 11 -10 16 0 6 5 7 10 4 6 -3 10 -11 10 -16z m194 -13 c-3 -9 -10 -16
-15 -16 -5 0 -4 9 3 20 14 22 21 20 12 -4z m343 8 c-3 -3 -12 -4 -19 -1 -8 3
-5 6 6 6 11 1 17 -2 13 -5z m-502 -13 c-9 -8 -36 -10 -30 -2 2 4 11 8 20 8 8
0 13 -3 10 -6z m923 -16 c-3 -3 -9 2 -12 12 -6 14 -5 15 5 6 7 -7 10 -15 7
-18z m-990 -18 c2 -12 -3 -17 -18 -17 -12 0 -18 -4 -15 -10 4 -6 -5 -10 -19
-10 -14 0 -26 -4 -26 -9 0 -17 -40 -7 -58 13 -16 20 -16 20 1 7 14 -11 17 -11
17 0 0 8 6 5 14 -7 14 -18 15 -18 21 -1 4 9 14 17 22 17 8 0 11 5 8 10 -3 6 1
10 9 10 9 0 16 5 16 11 0 17 25 4 28 -14z m192 13 c0 -5 -5 -10 -11 -10 -5 0
-8 -4 -5 -8 3 -5 -5 -18 -19 -30 l-24 -21 2 25 c1 14 9 30 17 35 13 9 12 10
-2 5 -10 -3 -18 -1 -18 4 0 6 14 10 30 10 17 0 30 -4 30 -10z m770 0 c12 -7
12 -12 2 -22 -9 -9 -12 -9 -12 4 0 9 -6 19 -12 21 -7 3 -8 6 -3 6 6 0 17 -4
25 -9z m-568 -23 c-6 -7 -24 -20 -40 -30 -25 -14 -30 -15 -28 -2 1 8 6 18 11
22 4 4 5 2 0 -6 -5 -9 -3 -12 6 -9 8 3 15 10 15 16 2 18 2 18 25 19 15 1 18
-1 11 -10z m133 3 c3 -5 -1 -10 -10 -10 -9 0 -13 5 -10 10 3 6 8 10 10 10 2 0
7 -4 10 -10z m415 -5 c0 -8 -2 -15 -4 -15 -2 0 -6 7 -10 15 -3 8 -1 15 4 15 6
0 10 -7 10 -15z m-873 -39 c-4 -9 -13 -12 -26 -9 -27 7 -27 23 0 23 13 0 18 4
13 13 -5 9 -4 9 6 0 7 -6 10 -18 7 -27z m373 9 c5 3 10 1 10 -6 0 -7 -9 -9
-22 -5 -13 3 -27 6 -31 6 -5 0 -5 5 -2 10 5 8 11 7 20 0 8 -7 19 -9 25 -5z
m-430 -25 c0 -5 -9 -10 -20 -10 -11 0 -20 5 -20 10 0 6 9 10 20 10 11 0 20 -4
20 -10z m82 -22 c-6 -6 -15 -8 -19 -3 -5 4 -2 10 5 12 6 3 9 10 6 16 -5 8 -2
8 7 0 10 -10 10 -16 1 -25z m228 22 c12 -8 12 -10 -5 -10 -17 0 -18 -2 -5 -11
13 -9 13 -10 0 -6 -8 2 -23 -7 -33 -20 -11 -13 -24 -22 -31 -20 -6 2 -20 0
-31 -5 -20 -9 -20 -9 0 7 10 8 24 14 30 12 14 -5 47 34 41 50 -6 15 12 17 34
3z m550 0 c0 -5 -2 -10 -4 -10 -3 0 -8 5 -11 10 -3 6 -1 10 4 10 6 0 11 -4 11
-10z m95 0 c3 -5 1 -10 -4 -10 -6 0 -11 5 -11 10 0 6 2 10 4 10 3 0 8 -4 11
-10z m-1118 -34 c-2 -32 -27 -73 -27 -45 0 13 22 79 26 79 2 0 2 -15 1 -34z
m1103 3 c0 -6 -4 -7 -10 -4 -5 3 -11 1 -11 -4 -3 -26 -4 -30 -11 -37 -13 -13
-9 36 5 50 13 15 27 12 27 -5z m-695 1 c-3 -5 -11 -10 -16 -10 -6 0 -7 5 -4
10 3 6 11 10 16 10 6 0 7 -4 4 -10z m-451 -32 c-9 -14 -23 2 -17 18 4 12 8 13
14 3 4 -7 5 -17 3 -21z m148 7 c6 -29 1 -31 -24 -8 -23 21 -23 33 1 33 12 0
20 -9 23 -25z m948 -20 c0 -8 -4 -15 -10 -15 -5 0 -7 7 -4 15 4 8 8 15 10 15
2 0 4 -7 4 -15z m-904 -12 c-1 -7 -6 -14 -12 -14 -5 -1 -17 -5 -28 -11 -18
-10 -18 -9 0 14 20 27 43 33 40 11z m208 -11 c10 -17 -29 -28 -54 -15 -17 9
-20 13 -8 13 9 0 20 -5 23 -10 7 -12 25 -4 25 11 0 5 -7 9 -15 9 -8 0 -15 5
-15 10 0 11 35 -3 44 -18z m-397 -4 c-3 -8 -6 -5 -6 6 -1 11 2 17 5 13 3 -3 4
-12 1 -19z m83 -32 c0 -3 -4 -8 -10 -11 -5 -3 -10 -1 -10 4 0 6 5 11 10 11 6
0 10 -2 10 -4z m27 -21 c-15 -16 -19 -13 -11 9 3 9 10 13 15 10 5 -3 3 -11 -4
-19z m-91 -6 c4 -7 1 -10 -7 -7 -8 3 -19 -2 -25 -10 -9 -12 -13 -12 -19 -2 -5
9 -4 11 3 6 7 -4 12 -1 12 8 0 18 25 21 36 5z m784 3 c0 -5 -7 -9 -15 -9 -8 0
-12 4 -9 9 3 4 9 8 15 8 5 0 9 -4 9 -8z m84 0 c3 -5 -1 -9 -9 -9 -8 0 -12 4
-9 9 3 4 7 8 9 8 2 0 6 -4 9 -8z m59 -19 c-6 -16 -5 -16 10 -4 10 8 20 11 23
9 3 -3 -9 -16 -27 -29 -28 -19 -32 -20 -26 -5 5 12 3 16 -5 14 -7 -3 -13 -13
-13 -24 1 -20 -22 -40 -32 -30 -4 3 -1 6 5 6 6 0 9 6 7 13 -6 15 3 29 35 50
30 21 31 21 23 0z m-867 -18 c-3 -9 -11 -13 -16 -10 -8 5 -7 11 1 21 14 18 24
11 15 -11z m667 -22 c-3 -7 -8 -13 -12 -13 -4 0 -8 6 -8 13 0 8 6 14 13 14 7
0 10 -6 7 -14z m-515 -1 c15 12 16 11 3 -4 -11 -15 -11 -21 0 -35 12 -14 10
-14 -13 1 -16 10 -28 22 -28 25 0 14 15 22 18 11 3 -7 9 -7 20 2z m-202 -24
c-1 -13 -9 -24 -18 -26 -22 -4 -23 11 -2 32 20 21 21 20 20 -6z m817 -8 c3
-13 -2 -25 -16 -35 -25 -17 -32 -7 -23 30 8 30 32 33 39 5z m-636 -15 c24 -25
7 -30 -18 -6 -13 12 -17 21 -10 21 7 0 19 -7 28 -15z m-18 -28 c13 -20 13 -21
-2 -9 -9 8 -22 10 -29 6 -7 -5 -20 -9 -30 -9 -14 -1 -14 2 5 21 24 25 37 23
56 -9z m-213 -24 c-10 -10 -16 -12 -12 -5 4 6 3 12 -2 12 -16 0 -22 -13 -12
-25 7 -9 6 -16 -4 -24 -11 -9 -13 -7 -12 11 1 16 -4 22 -16 20 -9 -1 -19 2
-23 8 -3 5 -1 10 5 10 6 0 8 6 4 13 -4 6 1 5 12 -4 17 -15 20 -14 36 2 9 9 15
19 14 22 -2 2 4 -2 13 -9 14 -13 13 -16 -3 -31z m664 -3 c0 -5 -9 -10 -20 -10
-11 0 -20 5 -20 10 0 6 9 10 20 10 11 0 20 -4 20 -10z m-60 -20 c0 -5 -4 -10
-10 -10 -5 0 -10 5 -10 10 0 6 5 10 10 10 6 0 10 -4 10 -10z m-770 -15 c0 -7
-30 -13 -34 -7 -3 4 4 9 15 9 10 1 19 0 19 -2z m832 -35 c12 -11 17 -20 10
-20 -6 0 -14 5 -17 10 -3 6 -15 10 -26 10 -11 0 -17 5 -14 10 9 15 24 12 47
-10z m-722 -4 c0 -3 -4 -8 -10 -11 -5 -3 -10 -1 -10 4 0 6 5 11 10 11 6 0 10
-2 10 -4z m705 -16 c3 -5 2 -10 -4 -10 -5 0 -13 5 -16 10 -3 6 -2 10 4 10 5 0
13 -4 16 -10z m-608 -25 c-4 -8 -14 -15 -23 -15 -16 0 -16 2 1 20 20 22 31 20
22 -5z m33 -10 c-7 -8 -17 -15 -23 -15 -6 0 -2 8 9 19 22 21 33 19 14 -4z
m530 -15 c0 -5 -5 -10 -11 -10 -5 0 -7 5 -4 10 3 6 8 10 11 10 2 0 4 -4 4 -10z
m-556 -26 c3 -8 2 -12 -4 -9 -6 3 -10 10 -10 16 0 14 7 11 14 -7z m151 5 c3
-3 -6 -5 -19 -5 -14 1 -28 4 -31 7 -3 3 6 5 19 5 14 -1 28 -4 31 -7z m305 0
c0 -5 5 -7 12 -3 7 4 8 3 4 -5 -6 -9 -11 -9 -22 0 -17 14 -18 19 -4 19 6 0 10
-5 10 -11z m-48 -21 c-14 -14 -16 -62 -2 -53 6 3 10 4 10 1 0 -15 -20 -13 -34
3 -16 18 -16 20 5 40 24 22 42 30 21 9z m-348 -24 c4 -9 2 -13 -5 -8 -7 4 -10
1 -7 -7 3 -8 14 -12 24 -11 15 3 17 1 6 -9 -10 -11 -17 -9 -37 13 -17 18 -21
28 -12 31 20 9 25 8 31 -9z m266 -40 c0 -2 -9 0 -20 6 -11 6 -20 13 -20 16 0
2 9 0 20 -6 11 -6 20 -13 20 -16z m-3527 -14 c-3 -11 -9 -17 -14 -14 -8 4 -14
-17 -10 -38 0 -4 -6 -5 -14 -2 -18 7 -20 24 -3 24 6 0 8 3 5 6 -4 4 3 15 15
25 26 24 27 24 21 -1z m3317 10 c0 -5 -2 -10 -4 -10 -3 0 -8 5 -11 10 -3 6 -1
10 4 10 6 0 11 -4 11 -10z m-3250 -10 c0 -5 -7 -10 -15 -10 -8 0 -15 5 -15 10
0 6 7 10 15 10 8 0 15 -4 15 -10z m3295 -12 c5 4 5 1 1 -5 -4 -7 -2 -13 3 -13
6 0 11 -4 11 -10 0 -15 -24 -2 -39 23 -13 19 -12 21 1 10 8 -7 19 -9 23 -5z
m35 -48 c0 -11 -22 -18 -37 -12 -22 7 -14 20 12 20 14 0 25 -4 25 -8z m98 -10
c2 -10 0 -11 -5 -4 -12 16 -53 12 -53 -6 0 -13 -2 -13 -9 0 -14 21 -5 28 31
26 18 -1 33 -8 36 -16z m-18 -14 c0 -3 -4 -8 -10 -11 -5 -3 -10 -1 -10 4 0 6
5 11 10 11 6 0 10 -2 10 -4z m-65 -44 c-3 -4 -10 0 -15 8 -6 9 -5 17 3 22 13
8 24 -19 12 -30z m-3442 11 c-7 -2 -19 -2 -25 0 -7 3 -2 5 12 5 14 0 19 -2 13
-5z m268 0 c-10 -4 -11 -7 -1 -13 9 -6 6 -11 -10 -20 -18 -10 -21 -10 -14 2 5
7 9 16 10 21 1 4 2 9 3 12 0 3 7 5 14 4 8 0 8 -2 -2 -6z m-366 -23 c-3 -5 -12
-10 -18 -10 -7 0 -6 4 3 10 19 12 23 12 15 0z m52 -17 c0 -9 -4 -10 -13 -2
-18 15 -26 -5 -14 -36 5 -14 10 -34 9 -43 -1 -9 -6 0 -11 21 -6 20 -15 37 -21
37 -5 0 -3 8 6 18 20 22 44 25 44 5z m-12647 -7 c0 -3 -4 -8 -10 -11 -5 -3
-10 -1 -10 4 0 6 5 11 10 11 6 0 10 -2 10 -4z m157 -20 c-3 -8 -2 -17 4 -20 5
-2 4 -3 -3 -2 -17 3 -23 36 -8 36 7 0 10 -6 7 -14z m12373 -1 c-15 -17 -7 -19
21 -5 10 6 19 8 19 6 0 -14 -40 -25 -62 -17 -17 7 -19 10 -5 10 9 1 17 6 17
11 0 6 5 10 11 10 8 0 8 -5 -1 -15z m-12717 -2 c-7 -2 -21 -2 -30 0 -10 3 -4
5 12 5 17 0 24 -2 18 -5z m244 1 c-3 -3 -12 -4 -19 -1 -8 3 -5 6 6 6 11 1 17
-2 13 -5z m143 -4 c8 -5 11 -12 8 -16 -4 -3 -14 1 -23 10 -18 17 -9 21 15 6z
m-310 -10 c0 -5 -7 -10 -16 -10 -8 0 -12 5 -9 10 3 6 10 10 16 10 5 0 9 -4 9
-10z m113 2 c7 -9 -89 -9 -99 1 -4 4 16 7 44 7 28 0 53 -3 55 -8z m12862 -22
c3 -6 -1 -7 -9 -4 -18 7 -21 14 -7 14 6 0 13 -4 16 -10z m-31 -16 c3 -8 2 -12
-4 -9 -6 3 -10 10 -10 16 0 14 7 11 14 -7z m-12429 -24 c3 -11 14 -21 23 -21
15 -1 15 -2 1 -6 -9 -2 -23 -18 -31 -36 l-15 -32 -4 43 c-3 31 -1 42 9 42 12
0 12 3 2 15 -8 9 -8 15 -2 15 6 0 14 -9 17 -20z m12389 4 c3 -8 2 -12 -4 -9
-6 3 -10 10 -10 16 0 14 7 11 14 -7z m-13476 -11 c-10 -2 -26 -2 -35 0 -10 3
-2 5 17 5 19 0 27 -2 18 -5z m1302 -14 c0 -5 -7 -9 -15 -9 -15 0 -20 12 -9 23
8 8 24 -1 24 -14z m-1280 -41 c0 -13 -83 -3 -88 10 -2 7 -9 9 -14 6 -7 -5 -8
-2 -3 6 6 10 11 9 22 -5 13 -18 13 -18 14 1 0 10 3 13 6 7 2 -7 14 -13 25 -13
18 0 19 2 7 18 -11 14 -10 13 9 -2 12 -11 22 -23 22 -28z m841 -8 c-1 -22 2
-40 7 -40 6 0 10 -20 9 -45 -2 -37 -4 -42 -13 -30 -9 13 -13 13 -18 3 -3 -7
-5 23 -4 67 0 44 3 84 5 88 10 17 17 -5 14 -43z m13927 34 c89 -62 -112 -334
-248 -334 -45 0 -60 15 -60 57 0 82 104 218 203 268 59 29 75 31 105 9z
m-14931 -31 c-3 -10 -5 -4 -5 12 0 17 2 24 5 18 2 -7 2 -21 0 -30z m1387 5
c-3 -4 6 -8 20 -8 14 0 27 -4 31 -9 3 -6 -4 -8 -15 -6 -12 2 -23 -2 -26 -9 -5
-14 -28 -16 -40 -3 -4 4 3 7 16 7 22 0 22 1 7 18 -14 15 -15 19 -2 19 8 0 12
-4 9 -9z m12071 -7 c3 -5 2 -12 -3 -15 -5 -3 -9 1 -9 9 0 17 3 19 12 6z
m-12140 -11 c4 -6 -5 -10 -19 -10 -14 0 -26 5 -26 10 0 6 9 10 19 10 11 0 23
-4 26 -10z m12135 -35 c-7 -8 -20 -15 -29 -15 -11 0 -8 5 9 14 33 19 35 19 20
1z m-13089 -10 c16 -4 30 -2 33 4 4 6 13 11 19 11 7 0 6 -4 -3 -10 -8 -5 -11
-12 -7 -16 3 -4 13 -1 22 6 13 11 14 10 9 -5 -6 -14 -3 -16 16 -10 15 5 20 4
16 -4 -4 -7 1 -11 12 -11 11 0 39 -9 63 -19 24 -11 53 -21 64 -23 11 -1 23 -7
26 -12 4 -4 15 -3 25 3 13 7 14 10 5 11 -8 0 -12 2 -9 5 3 3 13 3 22 -1 15 -6
15 -7 0 -19 -16 -11 -13 -14 22 -25 21 -7 56 -21 78 -32 21 -11 36 -16 33 -11
-7 11 69 10 80 -1 4 -5 -3 -6 -17 -3 -45 11 -54 -8 -11 -23 41 -13 75 -6 50
12 -10 7 -5 8 14 3 22 -4 27 -3 21 7 -4 8 -3 10 2 5 5 -5 9 -12 9 -15 1 -20
17 -32 30 -22 11 9 12 7 8 -9 -3 -12 -14 -21 -25 -21 -10 0 -16 4 -13 10 4 6
-1 7 -11 3 -12 -4 -15 -3 -10 5 4 7 1 12 -8 12 -9 0 -16 -4 -16 -8 0 -13 70
-43 82 -36 6 4 8 2 5 -3 -4 -6 0 -13 8 -17 18 -6 30 10 13 17 -7 3 6 4 28 1
35 -3 42 -1 47 16 6 23 27 27 27 6 0 -12 -39 -36 -78 -48 -8 -2 2 -11 22 -21
21 -10 35 -12 33 -6 -1 7 3 13 10 16 6 2 10 -4 9 -14 -3 -21 29 -47 46 -37 6
4 8 3 5 -3 -7 -12 20 -26 33 -18 4 3 10 -2 14 -10 3 -8 11 -15 17 -15 8 0 8 4
-1 15 -7 8 -8 15 -2 15 14 0 33 -26 30 -40 -2 -6 6 -17 17 -23 11 -7 46 -29
79 -50 53 -35 61 -35 32 1 -5 8 -12 24 -13 35 -4 21 -3 21 11 2 9 -11 16 -25
16 -31 0 -6 7 -17 15 -24 8 -7 12 -16 9 -21 -3 -5 5 -13 18 -18 13 -5 31 -18
42 -30 14 -15 23 -18 36 -11 10 5 27 7 39 5 16 -3 21 1 21 16 0 11 4 18 9 15
5 -3 9 -17 9 -32 -1 -16 -3 -21 -8 -14 -11 17 -22 -3 -14 -27 3 -10 -2 -5 -11
10 -9 16 -21 27 -26 25 -12 -4 -13 -17 -1 -19 4 -1 13 -10 21 -21 7 -11 19
-17 27 -14 8 3 13 0 11 -7 -1 -8 12 -12 38 -11 34 1 41 -2 42 -18 2 -20 1 -20
-13 -2 -14 18 -14 18 -8 -1 l7 -20 -16 20 c-9 11 -17 15 -17 8 0 -11 18 -28
31 -28 3 0 33 -25 67 -56 58 -52 62 -59 62 -99 l0 -44 -39 38 c-22 21 -44 36
-49 32 -5 -3 -15 1 -22 10 -7 8 -18 13 -25 10 -6 -2 -12 2 -12 10 0 12 4 12
24 -1 13 -9 23 -12 23 -7 0 5 -11 14 -24 20 -29 13 -45 0 -48 -41 -1 -16 -10
-28 -21 -31 -11 -2 -17 -8 -14 -13 3 -5 -2 -9 -12 -9 -10 0 -18 6 -18 14 0 7
6 11 13 8 15 -6 39 20 26 28 -5 3 -21 -5 -36 -19 -15 -13 -29 -24 -32 -23 -3
0 -23 -8 -45 -18 -42 -21 -53 -39 -16 -29 17 5 19 4 7 -4 -8 -6 -26 -8 -40 -6
-14 2 -32 0 -40 -6 -13 -9 -13 -9 0 -7 9 2 15 -1 15 -6 0 -5 -10 -10 -22 -11
-12 0 -19 4 -16 9 4 5 1 6 -8 0 -8 -5 -17 -9 -21 -10 -5 -1 -10 -3 -13 -4 -3
-1 -8 -3 -12 -4 -34 -8 -82 -29 -79 -35 3 -4 -11 -5 -30 -3 -19 2 -34 0 -34
-6 0 -5 -6 -9 -12 -9 -34 4 -191 -28 -195 -39 -3 -8 -26 -11 -71 -8 -48 2 -56
1 -27 -4 l39 -7 -28 -13 c-16 -7 -31 -11 -33 -8 -3 3 -16 1 -29 -4 -19 -8 -22
-6 -17 8 4 9 11 21 17 25 7 6 4 7 -6 3 -22 -7 -50 3 -43 14 3 5 -1 15 -10 23
-13 13 -13 16 1 21 10 4 13 2 8 -6 -5 -7 -3 -8 7 -2 15 9 20 10 92 12 27 1 46
6 43 10 -2 4 12 7 32 6 73 -2 265 43 255 60 -4 5 1 7 10 3 9 -3 40 3 69 13 29
11 46 19 39 20 -13 0 -13 2 -2 13 11 10 14 9 18 -1 3 -6 10 -9 16 -5 12 7 17
9 36 12 5 0 17 8 25 17 14 14 29 20 57 23 4 1 19 11 33 22 22 17 25 24 14 31
-8 5 -2 6 16 2 26 -6 27 -5 17 14 -13 24 -38 20 -70 -9 -12 -11 -21 -16 -21
-11 0 11 50 46 64 47 5 0 11 6 14 14 3 8 0 11 -7 7 -7 -5 -9 -1 -5 8 7 18 -15
22 -34 6 -7 -5 -5 -2 3 7 19 22 50 6 50 -25 0 -12 6 -27 13 -34 11 -11 16 -10
26 4 7 10 17 14 22 10 5 -4 0 3 -10 15 -10 13 -21 21 -25 19 -3 -2 -24 13 -45
35 -38 37 -41 38 -60 21 -11 -9 -16 -11 -11 -3 6 10 2 11 -16 6 -21 -7 -22 -6
-10 9 10 12 17 14 27 5 8 -6 14 -7 14 -2 0 5 -37 33 -82 63 -46 29 -96 62
-111 72 -17 12 -35 17 -49 12 -15 -4 -18 -3 -13 6 6 9 0 12 -23 8 -19 -3 -29
-1 -25 6 4 5 -1 7 -11 3 -10 -4 -21 -7 -24 -7 -4 0 0 -5 8 -10 12 -8 12 -10
-5 -10 -11 0 -27 5 -35 10 -12 8 -11 10 6 10 12 0 32 8 45 19 l23 18 -23 13
c-15 7 -21 8 -17 1 5 -7 -2 -10 -19 -9 -21 2 -23 4 -12 13 12 9 1 18 -55 49
-39 21 -68 33 -64 25 4 -8 1 -6 -7 3 -8 10 -17 15 -20 11 -4 -3 -7 -1 -7 6 0
7 -4 9 -10 6 -5 -3 -10 -2 -10 3 0 6 -7 13 -16 16 -8 3 -13 2 -10 -2 2 -4 -5
-9 -17 -9 -17 -2 -18 0 -7 7 8 5 12 11 10 13 -8 6 -221 99 -234 101 -6 2 -24
8 -41 15 -98 41 -122 48 -122 35 0 -7 7 -10 16 -6 17 6 16 4 -13 -18 -11 -8
-17 -10 -13 -4 4 7 -14 16 -49 24 -67 16 -79 30 -27 31 35 0 36 1 14 10 -14 5
-30 8 -37 5 -7 -3 -14 -1 -16 4 -2 5 -16 11 -33 14 -40 5 -66 16 -60 26 3 5
-4 11 -15 15 -62 20 39 29 111 10z m309 4 c0 -5 -4 -8 -9 -4 -6 3 -14 -2 -18
-10 -5 -9 -19 -14 -31 -12 -35 5 -38 17 -4 17 18 0 32 5 32 10 0 6 7 10 15 10
8 0 15 -5 15 -11z m523 -4 c-3 -9 -8 -14 -10 -11 -3 3 -2 9 2 15 9 16 15 13 8
-4z m12122 5 c19 -8 19 -9 -2 -9 -12 -1 -25 4 -28 9 -7 12 2 12 30 0z m-12820
-10 c13 -5 14 -9 5 -9 -8 0 -24 4 -35 9 -13 5 -14 9 -5 9 8 0 24 -4 35 -9z
m-315 -20 c0 -11 -4 -20 -8 -20 -4 0 -8 9 -9 20 -1 11 2 20 8 20 5 0 9 -9 9
-20z m12757 14 c-3 -3 -12 -4 -19 -1 -8 3 -5 6 6 6 11 1 17 -2 13 -5z m194
-27 c-10 -9 -11 -8 -5 6 3 10 9 15 12 12 3 -3 0 -11 -7 -18z m-11941 -12 c-13
-15 -3 -21 25 -15 6 1 1 -7 -10 -18 -17 -17 -20 -17 -24 -3 -2 9 -8 22 -15 30
-8 12 -8 13 2 7 7 -4 15 -1 18 9 4 9 9 14 12 11 3 -3 -1 -12 -8 -21z m11844
15 c2 -3 -24 -5 -59 -5 -36 1 -67 3 -70 6 -3 3 24 5 59 5 35 -1 67 -3 70 -6z
m-12724 -25 c5 3 10 -1 10 -9 0 -10 -10 -16 -27 -17 -55 -3 -77 6 -54 21 8 4
21 6 29 2 11 -4 13 -2 7 9 -8 12 -6 12 8 1 9 -8 21 -11 27 -7z m420 -16 c0 -4
8 -10 18 -13 9 -3 5 -4 -11 -2 -15 2 -30 -1 -33 -5 -3 -5 -11 -9 -17 -9 -7 0
-4 5 6 11 9 6 15 14 13 18 -3 4 1 8 9 8 8 0 15 -4 15 -8z m440 -20 c0 -10 -61
-2 -72 9 -4 4 10 6 32 4 22 -2 40 -8 40 -13z m11815 11 c18 -1 19 -1 3 -11
-12 -7 -24 -7 -37 0 -10 6 -22 7 -26 3 -5 -4 -5 -2 -2 5 4 6 15 10 25 8 9 -2
26 -4 37 -5z m-12630 -30 c-3 -5 -12 -10 -20 -10 -7 0 -15 -5 -17 -12 -3 -8
-11 -9 -24 -3 -18 8 -18 9 4 12 12 3 22 9 22 14 0 5 9 9 21 9 11 0 17 -4 14
-10z m761 -10 c0 -11 -4 -20 -8 -20 -10 0 -11 24 -1 33 9 9 9 10 9 -13z m-906
-6 c0 -8 -19 -13 -24 -6 -3 5 1 9 9 9 8 0 15 -2 15 -3z m330 -4 c0 -5 -7 -10
-16 -10 -8 0 -12 5 -9 10 3 6 10 10 16 10 5 0 9 -4 9 -10z m129 -61 c-21 -13
-28 -11 -26 10 1 16 5 18 20 9 16 -8 17 -12 6 -19z m54 -13 c7 2 13 -3 13 -14
0 -12 -7 -18 -21 -16 -11 1 -19 7 -17 13 1 6 -5 11 -14 11 -14 0 -14 3 -3 16
11 14 13 14 21 0 5 -8 14 -13 21 -10z m10992 -18 c5 4 5 1 1 -6 -6 -10 -11
-10 -22 -1 -8 6 -14 14 -14 16 0 3 6 0 13 -6 8 -6 18 -7 22 -3z m-10911 -20
c-5 -8 -2 -9 10 -5 11 4 15 3 11 -4 -4 -6 -14 -8 -22 -4 -13 4 -14 3 -3 -10
10 -12 9 -15 -6 -15 -11 0 -26 5 -34 10 -13 8 -12 10 3 10 10 0 16 4 12 9 -3
5 3 12 12 14 10 3 19 5 21 6 2 0 0 -4 -4 -11z m10981 -41 c-29 -10 -39 -36
-30 -80 6 -29 4 -28 -17 13 -21 41 -22 45 -5 48 9 2 14 8 11 14 -4 6 -3 8 2 5
6 -3 16 -2 24 4 10 6 11 9 3 9 -7 0 -13 4 -13 9 0 5 11 4 25 -2 l24 -12 -24
-8z m-10925 -13 c0 -2 -7 -4 -15 -4 -8 0 -15 4 -15 10 0 5 7 7 15 4 8 -4 15
-8 15 -10z m165 -50 c27 -15 25 -28 -4 -32 -15 -3 -21 0 -16 8 4 6 14 9 22 6
8 -3 11 -1 8 5 -4 5 -14 7 -24 4 -9 -3 -26 2 -37 10 -16 12 -16 14 -1 9 11 -4
17 -1 17 7 0 9 3 10 8 4 4 -5 16 -15 27 -21z m235 22 c0 -2 -18 -6 -39 -8 -22
-2 -37 0 -35 4 5 8 74 11 74 4z m10760 -20 c-7 -7 -13 -7 -20 0 -6 6 -3 10 10
10 13 0 16 -4 10 -10z m-11949 -25 c6 10 9 5 9 -16 0 -27 -19 -73 -20 -50 -7
80 -7 96 -3 76 4 -19 7 -21 14 -10z m1209 19 c0 -5 -5 -10 -11 -10 -5 0 -7 5
-4 10 3 6 8 10 11 10 2 0 4 -4 4 -10z m156 -6 c-1 -8 -6 -17 -12 -21 -5 -4 -6
-4 -2 1 4 5 3 14 -2 21 -7 8 -5 12 4 12 8 0 13 -6 12 -13z m10611 -7 c0 -7
-11 -12 -26 -11 -37 3 -39 5 -11 14 36 11 37 11 37 -3z m-10729 -6 c-2 -25 3
-31 21 -21 15 7 19 7 17 -5 -1 -8 -6 -18 -11 -22 -4 -4 -5 -2 -1 5 5 8 3 13
-5 11 -27 -3 -40 1 -34 11 8 13 -8 13 -21 0 -7 -7 -11 -6 -11 4 0 8 4 13 9 10
4 -3 8 -1 8 4 0 5 7 9 14 9 8 0 15 -3 14 -6z m10866 -27 c9 -22 8 -24 -9 -24
-8 0 -15 9 -15 20 0 24 15 27 24 4z m166 -6 c0 -6 -6 -5 -15 2 -8 7 -15 14
-15 16 0 2 7 1 15 -2 8 -4 15 -11 15 -16z m-12194 -20 c-1 -13 4 -30 11 -39
12 -14 11 -17 -11 -21 -22 -5 -25 -2 -20 17 3 11 7 30 9 41 4 24 4 24 9 24 2
0 2 -10 2 -22z m897 2 c-3 -12 -8 -19 -11 -16 -5 6 5 36 12 36 2 0 2 -9 -1
-20z m97 16 c0 -2 -7 -7 -16 -10 -8 -3 -12 -2 -9 4 6 10 25 14 25 6z m-123
-28 c-3 -8 -6 -5 -6 6 -1 11 2 17 5 13 3 -3 4 -12 1 -19z m10734 -23 c5 3 6
-1 3 -9 -11 -29 -24 -16 -23 22 2 30 3 32 6 9 2 -15 9 -25 14 -22z m494 5 c-3
-5 -19 -10 -36 -10 -16 0 -29 5 -29 10 0 6 16 10 36 10 21 0 33 -4 29 -10z
m249 1 c3 -5 -1 -11 -9 -15 -9 -3 -15 0 -15 9 0 16 16 20 24 6z m-12184 -21
c0 -5 -2 -10 -4 -10 -3 0 -8 5 -11 10 -3 6 -1 10 4 10 6 0 11 -4 11 -10z
m1147 -22 c-15 -9 -33 -10 -24 -1 4 3 2 12 -4 19 -8 10 -6 11 15 1 16 -8 21
-14 13 -19z m10873 22 c0 -5 -2 -10 -4 -10 -3 0 -8 5 -11 10 -3 6 -1 10 4 10
6 0 11 -4 11 -10z m-10786 -21 c-3 -5 -10 -7 -15 -3 -5 3 -7 10 -3 15 3 5 10
7 15 3 5 -3 7 -10 3 -15z m-1284 1 c12 -8 12 -10 -5 -10 -17 0 -18 -2 -5 -10
11 -8 6 -10 -20 -8 -27 1 -36 6 -36 20 0 20 40 25 66 8z m80 -10 c0 -11 -4
-20 -9 -20 -14 0 -23 18 -16 30 10 17 25 11 25 -10z m23 5 c4 -8 3 -16 -1 -19
-4 -3 -9 4 -9 15 -2 23 3 25 10 4z m61 4 c-2 -4 0 -10 6 -14 5 -3 10 1 10 9 0
9 7 16 15 16 8 0 15 -8 15 -19 0 -14 -7 -18 -29 -17 -16 0 -28 3 -25 5 2 2 -1
9 -6 16 -7 8 -5 12 5 12 8 0 12 -4 9 -8z m200 3 c2 -4 -4 -8 -15 -8 -10 0 -19
4 -19 8 0 4 6 8 14 8 8 0 17 -4 20 -8z m11900 -21 c-2 -3 -12 3 -22 13 -16 17
-16 18 5 5 12 -7 20 -15 17 -18z m-12129 10 c3 -5 2 -12 -3 -15 -5 -3 -9 1 -9
9 0 17 3 19 12 6z m863 2 c-10 -2 -18 -9 -18 -15 0 -6 -3 -9 -6 -5 -10 10 6
27 24 26 15 -1 15 -2 0 -6z m245 -6 c9 -25 -7 -36 -28 -20 -19 15 -19 15 5 8
22 -7 23 -6 11 9 -7 9 -9 16 -3 16 5 0 12 -6 15 -13z m-713 -8 c0 -6 -13 -8
-31 -5 -45 7 -48 16 -6 16 21 0 37 -5 37 -11z m501 -2 c-6 -8 -8 -17 -4 -21 4
-4 0 -4 -9 -1 -14 5 -15 10 -5 21 16 17 33 18 18 1z m10496 -28 c-1 -18 -16
-28 -18 -11 0 4 -2 17 -3 29 -2 17 0 20 10 12 7 -6 12 -19 11 -30z m-11163 11
c2 -3 -19 -5 -49 -5 -29 0 -52 2 -50 5 5 8 91 7 99 0z m731 -14 c34 -15 44
-29 26 -40 -13 -8 -42 4 -36 15 3 4 13 6 23 3 14 -5 14 -4 2 4 -8 6 -18 8 -22
6 -5 -3 -15 2 -24 10 -19 20 -13 20 31 2z m-1045 -6 c0 -5 -8 -10 -17 -10 -15
0 -16 -2 -3 -10 12 -8 12 -10 -5 -11 -41 -2 -80 3 -90 12 -7 7 -5 8 5 5 8 -3
31 1 50 8 44 17 60 19 60 6z m12067 -8 c0 -12 -9 -18 -24 -18 -22 0 -22 11 0
11 7 1 11 6 10 13 -2 7 1 12 6 12 6 0 9 -8 8 -18z m43 8 c0 -5 -7 -7 -15 -4
-8 4 -15 8 -15 10 0 2 7 4 15 4 8 0 15 -4 15 -10z m-11630 -43 c0 -14 -5 -17
-22 -11 -32 9 -32 9 -12 33 19 22 34 13 34 -22z m-342 18 c3 -3 -28 -4 -69 -4
-55 1 -66 3 -44 9 30 7 104 4 113 -5z m301 11 c-10 -8 -119 -14 -114 -5 4 5
31 9 62 9 31 0 54 -2 52 -4z m-172 -22 c-3 -3 -12 -4 -19 -1 -8 3 -5 6 6 6 11
1 17 -2 13 -5z m141 -1 c-10 -2 -26 -2 -35 0 -10 3 -2 5 17 5 19 0 27 -2 18
-5z m678 -9 c-22 -13 -31 -13 -40 -3 -8 9 -8 10 1 5 7 -4 21 -2 30 3 10 6 23
10 28 10 6 0 -3 -7 -19 -15z m-66 -14 c0 -5 -4 -10 -10 -10 -5 0 -10 5 -10 10
0 6 5 10 10 10 6 0 10 -4 10 -10z m150 -20 c0 -5 -7 -10 -15 -10 -8 0 -15 -5
-15 -12 0 -6 -3 -8 -6 -5 -8 8 14 37 27 37 5 0 9 -4 9 -10z m240 0 c0 -5 -7
-10 -16 -10 -8 0 -12 5 -9 10 3 6 10 10 16 10 5 0 9 -4 9 -10z m10185 -59 c2
-31 -1 -39 -10 -31 -6 5 -14 9 -16 7 -2 -1 2 3 9 10 10 9 11 16 3 30 -7 12
-10 14 -11 4 0 -8 -3 -12 -6 -8 -3 3 -3 15 1 27 10 32 27 10 30 -39z m461 36
c1 -7 6 -21 10 -31 6 -15 4 -17 -7 -11 -12 7 -11 6 1 -9 13 -17 12 -18 -5 -15
-15 3 -20 13 -21 39 0 19 2 39 4 43 5 10 15 1 18 -16z m-10616 -25 c0 -21 -2
-24 -10 -12 -13 20 -13 53 0 45 6 -3 10 -18 10 -33z m-297 -16 c3 -8 0 -20 -8
-26 -10 -8 -13 -5 -11 15 1 28 11 33 19 11z m287 -21 c11 -13 10 -14 -4 -9 -9
3 -16 10 -16 15 0 13 6 11 20 -6z m10158 -40 c-3 -3 -9 2 -12 12 -6 14 -5 15
5 6 7 -7 10 -15 7 -18z m-11303 -15 c14 -6 2 -8 -37 -7 -32 0 -52 4 -45 9 15
10 56 9 82 -2z m885 0 c-8 -6 -24 -16 -35 -22 -20 -11 -20 -11 -1 11 11 11 26
21 35 21 14 0 14 -2 1 -10z m-90 -20 c13 -9 13 -10 0 -9 -8 0 -24 4 -35 9
l-20 9 20 0 c11 0 27 -4 35 -9z m10577 -7 c3 -7 -3 -9 -16 -6 -12 3 -21 10
-21 15 0 13 32 6 37 -9z m103 8 c0 -6 -9 -9 -20 -8 -11 1 -20 5 -20 9 0 4 9 8
20 8 11 0 20 -4 20 -9z m2975 -33 c-3 -24 -3 -38 2 -31 4 6 8 -19 8 -55 0 -37
-1 -59 -3 -49 -2 9 -7 17 -12 17 -4 0 -7 35 -5 78 3 84 2 82 11 82 3 0 3 -19
-1 -42z m-13722 25 c-7 -2 -19 -2 -25 0 -7 3 -2 5 12 5 14 0 19 -2 13 -5z
m-138 -13 c-7 -11 -75 -11 -75 0 0 6 17 10 39 8 22 -1 38 -5 36 -8z m510 -9
c6 9 11 6 17 -10 6 -17 13 -21 26 -16 13 4 14 3 6 -5 -6 -6 -24 -10 -39 -8
-21 2 -29 9 -32 28 -2 17 0 21 6 11 7 -10 10 -11 16 0z m-1337 -7 c12 -4 22
-10 22 -16 0 -5 -8 -4 -19 2 -26 13 -31 13 -27 -2 1 -7 1 -10 -1 -5 -3 4 -11
7 -19 7 -9 0 -12 -4 -9 -10 3 -5 2 -10 -3 -10 -6 0 -13 7 -16 16 -3 8 -2 13 2
10 4 -2 14 -1 22 5 18 10 19 10 48 3z m932 2 c0 -3 -4 -8 -10 -11 -5 -3 -10
-1 -10 4 0 6 5 11 10 11 6 0 10 -2 10 -4z m90 0 c0 -2 -7 -7 -16 -10 -8 -3
-12 -2 -9 4 6 10 25 14 25 6z m10770 -5 c0 -6 -4 -12 -8 -15 -5 -3 -9 1 -9 9
0 8 4 15 9 15 4 0 8 -4 8 -9z m2940 -22 c0 -6 -4 -7 -10 -4 -5 3 -10 11 -10
16 0 6 5 7 10 4 6 -3 10 -11 10 -16z m-14623 -9 c1 -15 -4 -19 -22 -18 -25 2
-23 24 3 31 10 3 17 5 17 6 1 0 1 -8 2 -19z m813 5 c0 -2 -10 -9 -22 -15 -22
-11 -22 -10 -4 4 21 17 26 19 26 11z m-58 -12 c-6 -2 -10 -8 -8 -11 2 -4 -14
-8 -36 -9 -45 -1 -44 6 4 17 38 9 59 11 40 3z m283 -3 c3 -5 19 -10 35 -10 23
0 28 -4 27 -20 -1 -23 -47 -29 -47 -6 0 7 -10 21 -22 29 -13 9 -18 16 -11 16
6 1 15 -3 18 -9z m104 -4 c9 -11 9 -16 -1 -22 -7 -4 -10 -4 -6 1 4 4 3 14 -3
22 -6 7 -9 13 -6 13 2 0 10 -6 16 -14z m10406 -6 c10 -11 15 -20 11 -20 -4 0
-16 9 -28 20 -12 11 -17 20 -11 20 5 0 18 -9 28 -20z m51 -7 c2 -28 2 -28 -25
1 l-23 24 24 -1 c16 -2 23 -8 24 -24z m-11792 3 c-3 -7 2 -21 11 -29 9 -9 16
-20 17 -24 0 -4 3 -14 6 -21 2 -7 2 -16 -2 -19 -3 -4 -6 2 -6 13 0 15 -2 16
-9 5 -6 -9 -6 -24 0 -38 6 -18 6 -22 -3 -17 -8 5 -9 2 -5 -9 3 -10 4 -17 1
-17 -15 0 -20 48 -8 73 13 24 13 27 -2 27 -10 0 -14 5 -10 16 3 8 2 12 -4 9
-6 -3 -10 3 -10 14 0 16 6 22 27 30 1 1 0 -5 -3 -13z m1488 -28 c-6 -6 -7 0
-4 19 5 21 7 23 10 9 2 -10 0 -22 -6 -28z m-1429 17 c4 -8 3 -16 -1 -19 -4 -3
-9 4 -9 15 -2 23 3 25 10 4z m805 -17 c-20 -12 -25 -10 -31 11 -4 17 -2 18 19
9 18 -8 21 -14 12 -20z m322 -2 c0 -2 -9 -6 -20 -9 -11 -3 -18 -1 -14 4 5 9
34 13 34 5z m208 -14 c2 -6 -5 -9 -14 -8 -10 2 -20 8 -22 14 -2 6 5 9 14 8 10
-2 20 -8 22 -14z m-1248 -2 c0 -4 -7 -7 -15 -6 -23 3 -26 12 -5 13 11 1 20 -2
20 -7z m1085 0 c-3 -5 -14 -10 -23 -10 -15 0 -15 2 -2 10 20 13 33 13 25 0z
m11060 1 c-6 -11 -45 -10 -45 1 0 4 12 8 26 8 14 0 23 -4 19 -9z m-11595 -11
c0 -5 -5 -10 -11 -10 -5 0 -7 5 -4 10 3 6 8 10 11 10 2 0 4 -4 4 -10z m-228
-7 c-6 -2 -10 -8 -7 -13 3 -4 -2 -10 -10 -14 -8 -3 -14 0 -12 7 2 14 18 27 32
26 6 0 4 -3 -3 -6z m127 -9 c2 -2 -10 -4 -27 -4 -17 0 -34 4 -37 10 -5 9 53 3
64 -6z m11301 -15 c0 9 4 8 14 -1 18 -17 11 -28 -19 -28 -18 0 -23 4 -19 15 4
8 -1 17 -10 21 -9 3 -13 10 -10 16 3 5 14 -1 25 -13 10 -12 19 -17 19 -10z
m-11907 6 c-3 -9 -8 -14 -10 -11 -3 3 -2 9 2 15 9 16 15 13 8 -4z m524 9 c-3
-3 -12 -4 -19 -1 -8 3 -5 6 6 6 11 1 17 -2 13 -5z m14250 -51 c-3 -10 -5 -4
-5 12 0 17 2 24 5 18 2 -7 2 -21 0 -30z m-13832 17 c3 -5 -1 -10 -10 -10 -9 0
-13 5 -10 10 3 6 8 10 10 10 2 0 7 -4 10 -10z m55 0 c-10 -6 -11 -10 -2 -10 6
0 12 -4 12 -10 0 -6 -10 -5 -25 2 -19 8 -22 14 -13 20 7 4 20 8 28 8 13 0 13
-1 0 -10z m-543 -7 c-4 -3 0 -15 9 -25 14 -14 14 -20 4 -33 -11 -13 -14 -12
-30 8 -17 20 -17 24 -3 40 9 9 18 17 21 17 3 0 2 -3 -1 -7z m438 -16 c-9 -4
-21 -6 -28 -4 -7 2 -21 0 -32 -6 -17 -9 -18 -8 -7 5 7 10 27 16 48 15 25 -1
30 -3 19 -10z m11127 -12 c8 -11 -9 -35 -25 -35 -6 0 -2 7 9 15 17 13 17 14 2
15 -9 0 -20 -5 -24 -11 -4 -8 -9 -7 -15 2 -14 23 37 37 53 14z m373 7 c-3 -3
1 -12 8 -21 10 -14 10 -14 -4 -4 -9 7 -18 11 -21 8 -2 -3 -5 1 -5 8 0 8 6 14
14 14 7 0 11 -3 8 -5z m-11625 -12 c0 -9 -56 -7 -66 2 -4 4 10 7 30 6 20 -1
36 -4 36 -8z m180 -10 c0 -14 -6 -18 -21 -15 -25 5 -38 15 -20 15 7 0 10 4 7
8 -2 4 4 9 15 9 12 1 19 -5 19 -17z m57 -22 c1 -12 -5 -18 -18 -18 -10 0 -19
2 -19 4 0 2 -2 11 -5 18 -4 10 2 14 18 14 15 0 24 -6 24 -18z m-503 -4 c4 -10
1 -14 -6 -12 -15 5 -23 28 -10 28 5 0 13 -7 16 -16z m386 -4 c0 -5 -12 -10
-26 -10 -14 0 -23 4 -19 10 3 6 15 10 26 10 10 0 19 -4 19 -10z m-500 -20 c0
-5 -2 -10 -4 -10 -3 0 -8 5 -11 10 -3 6 -1 10 4 10 6 0 11 -4 11 -10z m13555
-18 c-3 -3 -11 0 -18 7 -9 10 -8 11 6 5 10 -3 15 -9 12 -12z m288 3 c-3 -9 -8
-14 -10 -11 -3 3 -2 9 2 15 9 16 15 13 8 -4z m-14131 -14 c-4 -10 -7 -11 -10
-3 -6 18 -22 14 -22 -5 0 -15 -2 -16 -10 -3 -15 23 -12 26 19 26 22 0 28 -3
23 -15z m108 5 c0 -8 -4 -17 -8 -20 -4 -2 -8 4 -8 15 0 10 4 19 8 19 4 0 8 -6
8 -14z m11890 4 c-8 -5 -19 -10 -25 -10 -5 0 -3 5 5 10 8 5 20 10 25 10 6 0 3
-5 -5 -10z m1880 -5 c0 -8 -2 -15 -4 -15 -2 0 -6 7 -10 15 -3 8 -1 15 4 15 6
0 10 -7 10 -15z m809 -22 c0 -31 -2 -34 -9 -18 -12 28 -12 55 0 55 6 0 10 -17
9 -37z m-2639 22 c0 -2 -6 -8 -13 -14 -10 -8 -14 -7 -14 2 0 8 6 14 14 14 7 0
13 -1 13 -2z m165 -15 c3 -5 1 -10 -5 -10 -6 0 -8 -5 -4 -11 4 -7 -2 -9 -17
-7 -34 4 -38 38 -5 38 14 0 28 -4 31 -10z m-88 -52 c-17 -11 -29 -10 -22 2 3
6 2 10 -4 10 -6 0 -8 6 -5 14 5 12 9 12 25 -2 14 -12 15 -18 6 -24z m143 2 c0
-11 -6 -19 -12 -17 -7 1 -12 -3 -11 -10 3 -12 -22 -12 -34 1 -4 4 -1 6 7 4 8
-1 14 3 13 10 -2 6 4 12 12 12 8 0 15 5 15 10 0 6 2 10 5 10 3 0 5 -9 5 -20z
m1465 10 c-3 -5 -14 -10 -23 -9 -14 0 -13 2 3 9 27 11 27 11 20 0z m221 -20
c1 -27 0 -28 -13 -12 -8 9 -12 12 -9 5 4 -6 3 -14 -2 -17 -16 -10 -9 29 7 41
9 7 16 12 16 13 0 0 0 -14 1 -30z m230 10 c0 -11 -1 -20 -3 -20 -1 0 -7 9 -13
20 -8 15 -8 20 3 20 7 0 13 -9 13 -20z m501 -22 c-3 -8 -6 -5 -6 6 -1 11 2 17
5 13 3 -3 4 -12 1 -19z m-14674 -3 c-3 -9 -8 -14 -10 -11 -3 3 -2 9 2 15 9 16
15 13 8 -4z m13645 -50 c3 -3 -7 -5 -21 -5 -15 0 -27 4 -27 9 0 10 38 7 48 -4z
m-884 -3 c3 -5 -1 -9 -9 -9 -8 0 -12 4 -9 9 3 4 7 8 9 8 2 0 6 -4 9 -8z m-254
-12 c0 -6 -17 -10 -39 -8 -22 1 -38 5 -36 8 7 11 75 11 75 0z m-156 -15 c3 -9
0 -15 -9 -15 -9 0 -12 6 -9 15 4 8 7 15 9 15 2 0 5 -7 9 -15z m50 0 c-10 -8
-23 -15 -28 -15 -6 0 -1 7 10 15 10 8 23 15 28 15 6 0 1 -7 -10 -15z m2263 -7
c-3 -8 -6 -5 -6 6 -1 11 2 17 5 13 3 -3 4 -12 1 -19z m-2107 0 c0 6 5 12 10
12 6 0 10 -9 10 -20 0 -13 -7 -20 -20 -20 -14 0 -20 7 -20 23 0 18 2 19 10 7
6 -10 10 -11 10 -2z m-12303 -30 c1 -11 -3 -18 -9 -16 -15 5 -19 35 -4 35 7 0
13 -9 13 -19z m13779 5 c-3 -3 0 -15 6 -27 8 -16 8 -18 -1 -10 -15 14 -24 57
-10 48 6 -3 8 -8 5 -11z m-1536 -25 l35 -15 -37 0 c-23 1 -33 4 -25 9 13 8 7
10 -35 10 -15 1 -25 4 -23 9 7 11 43 5 85 -13z m80 -58 c0 -5 -7 -7 -15 -4 -8
4 -15 8 -15 10 0 2 7 4 15 4 8 0 15 -4 15 -10z m1491 -13 c-10 -9 -11 -8 -5 6
3 10 9 15 12 12 3 -3 0 -11 -7 -18z m-1066 3 c4 -6 -6 -10 -22 -9 -25 0 -26 1
-8 9 11 5 21 9 22 9 1 1 5 -3 8 -9z m330 0 c-3 -5 -17 -10 -31 -10 -14 0 -22
4 -19 10 3 6 17 10 31 10 14 0 22 -4 19 -10z m-12998 -22 c-2 -7 0 -22 5 -33
9 -19 8 -19 -6 -2 -10 13 -22 17 -38 13 -17 -4 -16 -2 5 6 15 7 27 15 27 20 0
4 3 8 6 8 3 0 4 -6 1 -12z m501 -5 c-13 -7 -17 -12 -9 -13 8 0 12 -2 9 -5 -3
-3 -16 -1 -29 4 -21 9 -22 10 -4 11 l20 1 -20 9 c-15 6 -11 7 18 7 36 -1 36
-2 15 -14z m11932 7 c0 -5 -7 -10 -15 -10 -8 0 -15 -4 -15 -10 0 -5 -7 -7 -15
-4 -8 4 -15 10 -15 15 0 4 7 6 15 3 8 -4 15 -1 15 5 0 6 7 11 15 11 8 0 15 -4
15 -10z m1800 -5 c11 -14 7 -19 -12 -16 -12 2 -9 -13 5 -29 10 -12 9 -12 -5
-1 -18 14 -25 61 -9 61 5 0 14 -7 21 -15z m60 8 c0 -5 -5 -15 -10 -23 -8 -12
-10 -11 -10 8 0 12 5 22 10 22 6 0 10 -3 10 -7z m-1748 -37 c3 3 9 1 12 -5 4
-6 -6 -9 -23 -9 -19 1 -28 5 -24 12 4 6 -2 4 -12 -4 -11 -9 -16 -10 -11 -2 4
7 1 12 -8 12 -22 0 -20 18 2 23 9 2 26 -5 38 -15 11 -10 23 -16 26 -12z
m-12272 12 c0 -4 -4 -8 -9 -8 -6 0 -12 4 -15 8 -3 5 1 9 9 9 8 0 15 -4 15 -9z
m267 6 c-3 -3 -12 -4 -19 -1 -8 3 -5 6 6 6 11 1 17 -2 13 -5z m13744 -65 c-9
-21 -10 -21 -11 -4 0 17 -2 17 -10 5 -11 -17 -13 -9 -4 15 5 13 8 14 15 3 7
-10 9 -8 10 7 0 11 3 15 5 9 3 -6 0 -22 -5 -35z m-13581 25 c0 -8 -19 -13 -24
-6 -3 5 1 9 9 9 8 0 15 -2 15 -3z m13478 -53 c2 -23 -1 -41 -6 -41 -5 0 -9 20
-8 44 1 55 11 52 14 -3z m-13495 5 c9 1 17 -4 17 -12 0 -8 -10 -14 -25 -14
-19 0 -25 5 -25 23 0 13 3 17 8 11 4 -6 15 -10 25 -8z m13224 -38 c-3 -7 -5
-2 -5 12 0 14 2 19 5 13 2 -7 2 -19 0 -25z m-13343 7 c-6 -14 -44 -22 -44 -10
0 4 29 19 47 24 1 1 0 -6 -3 -14z m66 -9 c-6 -6 -18 -5 -32 1 -21 10 -21 10 9
9 19 -1 28 -5 23 -10z m427 -28 c-3 -8 -6 -5 -6 6 -1 11 2 17 5 13 3 -3 4 -12
1 -19z m11667 13 c3 -5 -5 -11 -18 -13 -17 -4 -23 -1 -19 9 6 15 29 18 37 4z
m86 5 c0 -2 -11 -11 -25 -20 -14 -9 -25 -13 -25 -8 0 5 10 14 23 20 27 13 27
13 27 8z m1130 -25 c-5 -10 -7 -21 -5 -25 3 -3 2 -3 -2 0 -5 3 -8 9 -8 12 0 4
-4 13 -8 19 -6 9 -3 11 9 6 13 -5 15 -3 9 7 -5 9 -4 11 3 6 8 -5 9 -13 2 -25z
m-13436 -16 c6 18 26 11 26 -8 0 -7 -4 -6 -10 3 -9 13 -10 13 -11 0 -1 -8 -1
-18 0 -22 0 -4 -12 -4 -27 -2 -32 6 -42 14 -18 14 13 0 16 5 12 18 -6 16 -5
16 8 -1 12 -16 14 -16 20 -2z m-97 -1 c-3 -3 -12 -4 -19 -1 -8 3 -5 6 6 6 11
1 17 -2 13 -5z m12632 -18 c0 -12 -3 -15 -6 -8 -2 6 -8 10 -12 8 -4 -3 -8 1
-8 8 0 7 6 13 14 13 7 0 13 -10 12 -21z m-12689 -8 c-13 -5 -28 -7 -34 -4 -6
2 -3 5 7 5 9 1 17 5 17 11 0 5 7 7 17 3 14 -5 12 -8 -7 -15z m12545 -7 c19
-11 19 -11 -5 -9 -16 2 -26 10 -28 23 -2 12 0 16 5 9 4 -6 17 -16 28 -23z
m-12625 -11 c0 -5 -7 -10 -15 -10 -8 0 -15 -5 -15 -12 0 -6 -2 -9 -5 -6 -3 3
-3 13 1 22 7 17 34 22 34 6z m84 -19 c4 -5 1 -11 -6 -13 -18 -6 -58 3 -58 13
0 12 57 12 64 0z m701 -54 c-8 -12 -15 -16 -15 -10 0 7 5 15 10 18 6 3 10 11
10 16 0 6 -4 7 -10 4 -12 -7 -12 -3 -3 21 6 15 7 15 15 -5 5 -15 3 -30 -7 -44z
m11859 44 c4 -5 -3 -7 -14 -4 -23 6 -26 13 -6 13 8 0 17 -4 20 -9z m82 -35 c3
-19 -26 -30 -40 -16 -8 8 -7 11 4 8 10 -2 15 4 14 20 -1 17 2 20 9 13 6 -6 12
-17 13 -25z m-12720 3 c5 -8 -3 -11 -22 -8 -4 0 -10 -5 -14 -11 -5 -7 -7 -2
-7 13 0 19 4 23 18 20 11 -3 22 -9 25 -14z m279 1 c-3 -5 -1 -10 4 -10 6 0 11
-4 11 -10 0 -5 -18 -8 -39 -7 -38 3 -64 13 -38 15 24 2 47 8 53 15 11 10 16 8
9 -3z m13665 -25 c0 -8 -4 -17 -10 -20 -6 -4 -10 5 -10 20 0 15 4 24 10 20 6
-3 10 -12 10 -20z m-259 0 c6 15 7 13 4 -10 -2 -16 -4 -32 -5 -35 -1 -3 -1 -9
0 -15 1 -5 -2 -7 -6 -2 -4 4 -9 24 -10 45 -1 20 1 28 4 17 l5 -20 8 20z m217
-10 c-3 -30 -14 -33 -21 -5 -3 11 -1 18 4 14 5 -3 9 0 9 5 0 6 2 11 5 11 3 0
4 -11 3 -25z m-13881 9 c-3 -3 -12 -4 -19 -1 -8 3 -5 6 6 6 11 1 17 -2 13 -5z
m418 -23 c3 -5 2 -12 -3 -15 -5 -3 -9 1 -9 9 0 17 3 19 12 6z m-363 -16 c-2
-5 -9 -8 -15 -6 -7 2 -17 4 -24 4 -7 0 -10 4 -7 9 8 12 50 6 46 -7z m285 -34
c1 -15 -7 -20 -42 -25 -23 -4 -56 -4 -71 1 l-29 7 35 7 c35 8 105 26 105 28 1
1 1 -8 2 -18z m12387 11 c3 -5 -1 -9 -9 -9 -8 0 -12 4 -9 9 3 4 7 8 9 8 2 0 6
-4 9 -8z m-11961 -22 c3 -13 0 -20 -9 -20 -8 0 -14 9 -14 20 0 11 4 20 9 20 5
0 11 -9 14 -20z m13114 -2 c-3 -8 -6 -5 -6 6 -1 11 2 17 5 13 3 -3 4 -12 1
-19z m27 7 c-4 -8 -8 -15 -10 -15 -2 0 -4 7 -4 15 0 8 4 15 10 15 5 0 7 -7 4
-15z m-13084 -57 c0 -5 -9 -8 -19 -8 -13 0 -19 6 -18 19 1 15 4 17 19 7 10 -6
18 -14 18 -18z m11910 12 c-6 -11 -12 -20 -14 -20 -2 0 -2 9 1 20 3 11 9 20
15 20 5 0 4 -9 -2 -20z m837 -12 c-3 -8 -6 -5 -6 6 -1 11 2 17 5 13 3 -3 4
-12 1 -19z m337 -16 c-7 -35 -24 -44 -24 -12 0 11 5 20 10 20 6 0 10 8 10 17
0 9 2 14 5 11 3 -3 2 -19 -1 -36z m-1173 -19 c-12 -20 -14 -14 -5 12 4 9 9 14
11 11 3 -2 0 -13 -6 -23z m916 -5 c-3 -7 -5 -2 -5 12 0 14 2 19 5 13 2 -7 2
-19 0 -25z m32 -25 c-1 -40 -4 -52 -10 -38 -4 11 -8 14 -8 6 -1 -8 -4 -12 -7
-8 -3 3 -2 12 2 19 4 7 7 27 5 45 -1 19 2 33 8 33 7 0 10 -22 10 -57z m-99
-50 c0 -16 -5 -35 -10 -43 -7 -11 -10 -4 -10 28 0 23 5 42 10 42 6 0 10 -12
10 -27z m12 -55 c-7 -7 -9 -5 -7 8 2 11 4 26 6 34 1 8 4 4 6 -9 3 -13 0 -28
-5 -33z m-751 -31 c-10 -9 -11 -8 -5 6 3 10 9 15 12 12 3 -3 0 -11 -7 -18z
m-41 -8 c0 -5 -4 -9 -10 -9 -5 0 -10 7 -10 16 0 8 5 12 10 9 6 -3 10 -10 10
-16z m17 -61 c-3 -8 -6 -5 -6 6 -1 11 2 17 5 13 3 -3 4 -12 1 -19z m990 -50
c-3 -8 -6 -5 -6 6 -1 11 2 17 5 13 3 -3 4 -12 1 -19z m-981 -20 c5 -7 3 -8 -6
-3 -9 6 -11 -2 -8 -33 4 -49 -8 -47 -14 3 -2 19 1 37 7 39 5 2 11 5 12 5 1 1
5 -4 9 -11z m53 -43 c-2 -54 -14 -87 -15 -42 -1 12 -3 36 -7 54 -3 17 -2 34 1
37 16 17 23 0 21 -49z m901 33 c0 -18 -2 -20 -9 -8 -6 8 -7 18 -5 22 9 14 14
9 14 -14z m-39 -55 c13 -16 12 -17 -3 -4 -10 7 -18 15 -18 17 0 8 8 3 21 -13z
m62 -34 c-8 -8 -13 -7 -18 2 -6 8 -4 10 5 4 10 -6 11 -1 7 21 -6 27 -6 27 5 6
8 -16 8 -26 1 -33z m-45 -20 c2 -21 -2 -29 -15 -29 -9 0 -13 3 -10 7 4 3 1 13
-6 21 -9 13 -9 14 1 8 15 -9 16 6 1 21 -9 9 -7 11 7 7 13 -4 21 -15 22 -35z
m-36 -158 c2 -29 0 -37 -10 -34 -8 4 -11 17 -8 37 7 51 13 50 18 -3z m24 -73
c-15 -10 -16 -6 -9 22 6 22 7 22 13 4 4 -10 2 -22 -4 -26z m-848 -23 c0 -19
-4 -37 -8 -40 -5 -3 -8 3 -8 12 0 10 -3 27 -7 38 -5 16 -5 17 4 5 9 -13 11
-13 11 3 0 9 2 17 4 17 2 0 4 -16 4 -35z m64 -139 c1 -41 -11 -61 -28 -42 -8
9 -7 22 4 50 17 43 22 42 24 -8z m59 37 c0 -5 2 -16 4 -26 3 -15 1 -16 -11 -6
-16 13 -19 39 -4 39 6 0 10 -3 11 -7z m17 -85 c1 -23 -2 -28 -8 -18 -12 19
-13 50 -2 50 5 0 9 -14 10 -32z m701 -8 c0 -10 -3 -8 -9 5 -12 27 -12 43 0 25
5 -8 9 -22 9 -30z m3 -46 c-5 -28 -18 -24 -24 9 -4 19 -1 23 12 20 12 -3 16
-12 12 -29z m-709 -16 c7 -4 5 -12 -6 -22 -14 -15 -16 -14 -22 4 -3 11 -3 30
1 43 7 21 8 21 12 2 2 -11 9 -23 15 -27z m27 -98 c0 -11 -4 -20 -10 -20 -5 0
-10 9 -10 20 0 11 5 20 10 20 6 0 10 -9 10 -20z m-21 -45 c0 -5 -6 -1 -14 9
-8 11 -15 24 -15 30 0 5 7 1 15 -10 8 -10 14 -23 14 -29z m136 -24 c3 -5 2
-12 -3 -15 -5 -3 -9 1 -9 9 0 17 3 19 12 6z m-73 -66 c-4 -5 -6 -19 -4 -30 2
-17 1 -17 -8 3 -5 12 -13 22 -19 22 -10 0 -21 46 -13 54 8 9 51 -38 44 -49z
m113 -10 c-4 -39 -12 -39 -13 0 -1 20 3 33 7 30 5 -3 8 -16 6 -30z m588 -5
c-3 -12 -8 -19 -11 -16 -5 6 5 36 12 36 2 0 2 -9 -1 -20z m-674 -19 c-15 -5
-22 6 -14 19 6 9 10 9 16 -1 5 -8 4 -15 -2 -18z m645 0 c4 -5 -3 -7 -14 -4
-23 6 -26 13 -6 13 8 0 17 -4 20 -9z m-680 -40 c15 -27 14 -29 -7 -35 -43 -11
-57 -7 -57 17 0 20 18 38 47 46 1 1 9 -12 17 -28z m36 19 c-10 -6 -11 -10 -2
-10 6 0 12 -11 12 -25 0 -14 -4 -25 -9 -25 -5 0 -7 9 -4 20 3 11 0 20 -6 20
-6 0 -11 7 -11 15 0 8 8 15 18 15 14 0 15 -2 2 -10z m581 -23 c-10 -9 -11 -8
-5 6 3 10 9 15 12 12 3 -3 0 -11 -7 -18z m107 -39 c-5 -12 -5 -18 2 -18 5 0
10 -12 10 -26 0 -23 -2 -24 -15 -10 -16 15 -19 55 -8 96 l7 25 6 -25 c4 -14 3
-33 -2 -42z m-56 31 c-2 -8 -5 -24 -6 -37 -2 -12 -9 -28 -16 -35 -10 -9 -11
-9 -6 1 4 6 2 12 -3 12 -6 0 -11 14 -11 30 0 24 4 30 23 30 18 0 19 2 7 11
-13 9 -13 10 0 6 8 -2 13 -11 12 -18z m-587 -49 c-3 -5 -1 -10 4 -10 6 0 11
-7 11 -16 0 -8 5 -12 11 -8 8 5 8 1 0 -14 -9 -17 -14 -19 -36 -9 -13 7 -20 14
-15 15 6 2 10 12 10 21 0 10 3 21 7 24 10 10 15 8 8 -3z m42 -72 c-3 -8 -6 -5
-6 6 -1 11 2 17 5 13 3 -3 4 -12 1 -19z m-51 -20 c6 -19 8 -20 18 -6 10 13 13
13 24 2 13 -14 8 -34 -8 -34 -5 0 -7 8 -3 18 6 16 5 16 -13 1 -27 -24 -104
-35 -115 -18 -14 23 -11 29 24 44 46 20 65 18 73 -7z m82 -89 c-3 -8 -7 -3
-11 10 -4 17 -3 21 5 13 5 -5 8 -16 6 -23z m130 -19 c-1 -16 -6 -26 -11 -23
-4 2 -7 12 -5 21 1 10 -1 23 -5 29 -6 9 -3 11 8 7 9 -4 14 -17 13 -34z m-95 3
c-7 -2 -13 -14 -13 -26 1 -22 1 -22 16 -2 16 20 16 20 10 -1 -4 -14 -1 -28 9
-37 21 -22 19 -27 -12 -27 -22 0 -25 2 -13 10 9 6 10 10 3 10 -13 0 -28 54
-18 70 3 5 12 10 18 9 9 0 9 -2 0 -6z m-33 -13 c0 -5 -2 -10 -4 -10 -3 0 -8 5
-11 10 -3 6 -1 10 4 10 6 0 11 -4 11 -10z m-10 -36 c13 -34 13 -34 -10 -34
-11 0 -40 -5 -65 -12 -35 -10 -48 -9 -57 0 -20 20 3 45 53 58 64 17 68 17 79
-12z m360 -35 c0 -5 -4 -8 -9 -4 -6 3 -13 0 -18 -7 -12 -19 -53 -40 -53 -28 0
5 5 10 11 10 6 0 9 6 6 14 -4 9 0 12 13 9 10 -3 21 0 24 6 9 14 26 14 26 0z
m118 0 c-9 -5 -15 -16 -12 -23 4 -10 -2 -12 -21 -9 -34 7 -42 23 -11 23 14 0
28 5 31 10 3 6 12 10 18 10 7 0 4 -5 -5 -11z m-314 -11 c4 4 7 3 6 -3 -5 -21
1 -29 10 -15 7 12 9 10 7 -7 0 -12 -5 -19 -9 -17 -4 3 -8 -1 -8 -8 -1 -11 -24
19 -25 32 0 3 -4 12 -10 20 -7 12 -6 13 7 3 8 -7 18 -9 22 -5z m106 -27 c0 -4
-11 -7 -24 -7 -14 0 -23 3 -21 6 5 9 45 10 45 1z m-120 -21 c0 -6 -16 -10 -35
-8 -19 1 -35 6 -35 10 0 4 16 8 35 8 19 0 35 -5 35 -10z m-10 -36 l-35 -14 35
6 c19 3 46 8 60 10 25 4 25 4 2 -6 -34 -15 -104 -17 -109 -3 -4 12 12 18 57
20 21 1 19 -1 -10 -13z"/>
<path d="M18158 8909 c-45 -23 -49 -31 -10 -18 15 4 40 11 56 14 23 5 27 8 15
16 -17 11 -16 11 -61 -12z"/>
<path d="M1225 7730 c-16 -7 -17 -9 -3 -9 9 -1 24 -4 34 -8 11 -4 15 -2 12 7
-6 18 -18 21 -43 10z"/>
<path d="M1506 6801 c-3 -5 1 -14 9 -21 12 -10 15 -10 15 3 0 19 -16 31 -24
18z"/>
<path d="M2090 5980 c-11 -8 -7 -9 15 -4 37 8 45 14 19 14 -10 0 -26 -5 -34
-10z"/>
<path d="M14891 4743 c-1 -17 16 -25 25 -12 4 7 3 9 -4 5 -5 -3 -13 0 -15 6
-4 9 -6 10 -6 1z"/>
<path d="M14996 4547 c3 -10 9 -15 12 -12 3 3 0 11 -7 18 -10 9 -11 8 -5 -6z"/>
<path d="M14471 16426 c-29 -18 -58 -40 -63 -49 -5 -10 -24 -95 -43 -190 -18
-94 -34 -170 -35 -167 -1 3 -16 63 -33 135 -22 89 -37 131 -47 133 -23 4 -109
-54 -119 -80 -5 -13 -21 -94 -37 -180 -16 -87 -31 -158 -35 -158 -3 0 -18 54
-34 120 -15 66 -33 126 -39 135 -9 13 -20 9 -78 -26 -59 -35 -68 -44 -68 -69
0 -16 32 -152 70 -301 39 -150 70 -274 70 -276 0 -9 26 1 79 32 69 41 69 39
107 240 14 77 27 141 29 143 1 1 15 -46 30 -105 16 -60 32 -119 37 -131 l8
-24 58 32 c31 18 63 37 70 44 10 10 143 649 154 743 4 39 -16 38 -81 -1z"/>
<path d="M14665 16084 c-33 -20 -63 -41 -67 -48 -9 -14 -10 -236 -1 -236 17 0
134 73 143 90 15 28 13 230 -2 230 -7 0 -40 -16 -73 -36z"/>
<path d="M13709 15984 c-37 -22 -60 -43 -66 -61 -6 -16 -23 -99 -38 -186 -16
-86 -32 -152 -36 -145 -3 7 -19 65 -34 128 -15 63 -32 119 -37 125 -15 16
-115 -42 -126 -73 -5 -15 -22 -98 -38 -184 -16 -87 -31 -158 -34 -158 -4 0
-19 56 -35 125 -15 68 -32 130 -36 136 -5 9 -26 1 -76 -27 l-68 -40 1 -49 c2
-54 125 -540 141 -556 6 -6 32 3 71 26 71 43 69 39 108 243 15 79 31 137 34
130 4 -7 20 -64 35 -125 19 -77 32 -113 41 -113 17 0 121 58 130 71 9 16 152
753 147 762 -8 13 -26 6 -84 -29z"/>
<path d="M12956 15552 c-38 -23 -63 -46 -71 -66 -7 -17 -25 -102 -41 -188 -15
-87 -30 -156 -32 -153 -3 2 -19 62 -36 132 -23 94 -35 129 -47 131 -26 5 -108
-50 -118 -79 -5 -14 -21 -96 -37 -182 -15 -86 -30 -157 -33 -157 -3 0 -19 56
-35 125 -16 68 -33 130 -37 136 -5 9 -26 2 -76 -27 -53 -31 -69 -45 -71 -65
-3 -25 117 -518 138 -567 l10 -23 61 33 c42 23 65 42 74 63 7 17 25 97 40 178
16 82 31 143 35 135 4 -7 20 -62 35 -122 16 -59 34 -110 41 -113 21 -8 122 59
133 87 16 41 152 741 146 751 -9 13 -14 11 -79 -29z"/>
<path d="M12217 15483 c-32 -19 -62 -44 -68 -56 -5 -12 -72 -294 -149 -627
-78 -333 -145 -622 -151 -644 -6 -23 -7 -42 -1 -48 9 -9 120 51 141 76 6 7 40
136 75 287 193 820 236 1008 236 1027 0 29 -14 27 -83 -15z"/>
<path d="M11923 15313 c-34 -20 -66 -48 -73 -62 -11 -23 -31 -109 -181 -756
-33 -143 -76 -325 -95 -404 -22 -92 -31 -148 -25 -154 6 -6 34 4 75 29 49 28
68 46 76 69 5 16 61 253 125 525 64 272 129 552 145 621 31 129 36 169 23 169
-5 -1 -36 -17 -70 -37z"/>
<path d="M6900 15124 c-14 -2 -59 -9 -100 -15 -41 -6 -130 -29 -197 -50 -423
-137 -871 -495 -1245 -994 -419 -560 -736 -1283 -862 -1968 -52 -279 -60 -373
-60 -692 -1 -337 10 -441 69 -670 75 -289 191 -511 354 -675 84 -85 131 -118
336 -240 77 -46 221 -132 320 -190 431 -257 471 -277 623 -310 108 -24 282
-26 407 -4 585 100 1225 642 1705 1444 293 490 514 1085 610 1642 34 204 50
398 50 627 0 594 -149 1066 -420 1330 -106 103 -125 116 -640 421 -151 89
-306 181 -345 204 -90 54 -201 100 -293 120 -73 16 -264 29 -312 20z m959
-1144 c148 -36 281 -116 382 -232 84 -96 101 -122 154 -226 109 -218 157 -453
158 -777 1 -252 -24 -446 -93 -726 -115 -466 -311 -885 -597 -1277 -97 -132
-127 -167 -283 -323 -218 -219 -412 -348 -646 -432 -238 -85 -493 -74 -684 30
-78 42 -178 120 -213 165 -13 18 -36 46 -50 62 -14 16 -43 59 -64 95 -226 386
-259 969 -93 1621 53 206 172 516 278 725 58 114 142 266 152 275 3 3 36 52
74 110 249 375 583 685 887 824 226 102 446 132 638 86z"/>
<path d="M7625 13845 c-11 -2 -45 -7 -75 -10 -30 -3 -61 -9 -67 -13 -8 -5 12
-33 60 -83 76 -80 132 -177 186 -318 l28 -75 54 77 c78 111 189 298 189 318 0
17 -105 70 -175 87 -45 12 -170 22 -200 17z"/>
<path d="M7238 13729 l-38 -21 0 -455 c0 -360 3 -453 13 -447 121 70 447 387
447 435 0 29 -66 204 -107 281 -40 77 -115 166 -166 196 -50 31 -105 35 -149
11z"/>
<path d="M8061 13597 c-44 -81 -144 -234 -210 -321 -40 -53 -52 -75 -48 -95
44 -244 77 -522 77 -647 0 -35 3 -64 6 -64 3 0 38 19 77 43 97 56 108 63 285
164 l153 88 -5 110 c-11 212 -58 409 -137 570 -42 86 -133 215 -152 215 -7 0
-27 -28 -46 -63z"/>
<path d="M7035 13593 c-65 -70 -183 -281 -243 -438 -13 -33 -30 -76 -37 -95
-36 -93 -125 -418 -125 -456 0 -41 235 13 386 88 l64 32 0 448 c0 279 -4 448
-10 448 -5 0 -21 -12 -35 -27z"/>
<path d="M6650 13233 c-126 -151 -229 -300 -319 -462 -60 -107 -64 -96 51
-141 120 -46 120 -46 141 58 36 173 131 472 184 575 30 59 5 46 -57 -30z"/>
<path d="M7590 12973 c-103 -105 -257 -234 -345 -290 l-45 -28 0 -293 0 -293
23 12 c12 7 49 29 82 49 33 20 80 48 105 62 98 55 345 199 349 204 7 7 1 208
-9 329 -11 122 -40 323 -49 342 -4 7 -47 -29 -111 -94z"/>
<path d="M8265 12553 c-108 -65 -245 -145 -336 -196 l-46 -26 -6 -173 c-8
-216 -49 -604 -73 -689 -3 -12 9 -19 52 -28 44 -10 139 -48 195 -78 14 -8 126
258 189 447 51 152 99 345 124 500 7 42 36 279 36 298 0 21 -22 12 -135 -55z"/>
<path d="M7040 12571 c-90 -48 -295 -101 -389 -101 -56 0 -49 14 -75 -145 -35
-207 -69 -645 -51 -645 5 0 38 17 74 39 226 133 342 201 346 201 2 0 33 19 69
41 l66 41 0 294 c0 162 -1 294 -3 294 -1 0 -18 -8 -37 -19z"/>
<path d="M6195 12513 c-123 -265 -241 -639 -275 -868 -21 -137 -40 -328 -35
-334 3 -3 16 1 28 9 24 14 289 170 347 202 19 11 58 34 86 51 l51 30 6 166 c7
202 48 587 73 687 5 18 -2 22 -49 33 -30 6 -87 27 -126 46 -40 19 -74 35 -76
35 -2 0 -16 -26 -30 -57z"/>
<path d="M7615 12173 c-71 -42 -141 -82 -155 -90 -14 -7 -77 -44 -140 -81
l-115 -67 -3 -293 c-1 -160 1 -292 6 -292 4 0 39 13 77 29 101 42 218 72 312
78 l82 6 11 50 c39 185 87 738 63 737 -5 0 -66 -35 -138 -77z"/>
<path d="M7020 11828 c-68 -44 -75 -48 -97 -58 -12 -5 -51 -27 -85 -48 -93
-57 -174 -104 -250 -146 l-68 -38 0 -111 c0 -158 40 -524 60 -556 5 -9 41 21
111 91 112 111 239 217 331 276 l58 37 0 288 c0 225 -3 287 -13 287 -7 0 -28
-10 -47 -22z"/>
<path d="M6255 11382 c-71 -43 -186 -109 -254 -147 l-123 -70 6 -100 c21 -333
110 -594 265 -773 l29 -33 37 68 c41 74 177 281 232 353 39 50 39 33 4 230
-22 123 -36 257 -47 438 -4 61 -9 112 -13 112 -3 0 -64 -35 -136 -78z"/>
<path d="M7462 11315 c-51 -14 -131 -44 -177 -66 l-85 -41 0 -456 0 -456 35
34 c91 88 203 300 291 550 43 119 124 412 124 444 0 24 -77 20 -188 -9z"/>
<path d="M7776 11319 c-3 -8 -19 -71 -35 -140 -36 -149 -77 -282 -137 -438
-25 -63 -43 -116 -41 -118 2 -2 22 18 43 44 21 27 41 50 44 53 14 13 82 104
137 180 59 85 213 337 213 350 0 12 -136 69 -180 76 -29 5 -41 3 -44 -7z"/>
<path d="M7029 11098 c-137 -98 -409 -366 -409 -403 0 -27 58 -183 101 -269
56 -115 151 -215 220 -234 42 -12 50 -11 92 9 l47 23 0 453 c0 249 -2 453 -3
453 -2 0 -24 -14 -48 -32z"/>
<path d="M6488 10533 c-59 -81 -152 -230 -215 -345 -2 -4 29 -23 69 -42 123
-59 269 -75 416 -45 28 6 52 12 52 14 0 2 -28 32 -63 67 -58 57 -73 79 -127
173 -10 17 -34 73 -55 125 -21 52 -39 96 -40 98 -1 2 -18 -19 -37 -45z"/>
<path d="M11385 14663 c-33 -20 -63 -42 -67 -47 -9 -13 -11 -220 -2 -229 8 -8
77 27 122 60 l32 24 0 115 c0 85 -3 114 -12 114 -7 0 -40 -17 -73 -37z"/>
<path d="M11050 14460 c-57 -27 -86 -54 -112 -105 -20 -38 -21 -39 -29 -16
l-9 23 -58 -32 c-31 -18 -63 -39 -69 -48 -10 -12 -13 -124 -13 -479 0 -393 2
-463 14 -463 26 0 125 65 136 89 6 14 11 78 10 155 -1 72 -1 135 -1 140 1 6 6
5 13 -2 20 -20 73 -14 112 13 130 88 193 259 184 499 -4 124 -23 193 -60 223
-28 23 -71 24 -118 3z m11 -257 c16 -42 7 -191 -14 -234 -19 -39 -75 -76 -100
-66 -35 13 -47 129 -22 214 29 97 112 149 136 86z"/>
<path d="M10461 14365 c-30 -18 -58 -41 -62 -51 -4 -11 -8 -71 -8 -135 l-1
-115 -35 -17 c-44 -21 -55 -49 -55 -135 0 -90 8 -101 53 -75 l35 21 4 -152 c5
-168 20 -225 64 -245 39 -18 67 -13 130 20 95 50 94 49 94 156 0 62 -4 93 -11
93 -6 0 -28 -10 -49 -21 -65 -37 -70 -28 -70 118 l0 128 46 25 c73 38 74 40
74 146 0 53 -4 94 -10 94 -5 0 -32 -13 -60 -30 l-50 -29 0 119 c0 139 0 140
-89 85z"/>
<path d="M11394 14197 c-88 -55 -84 -47 -84 -168 0 -60 4 -111 10 -114 11 -7
92 37 128 68 20 19 22 29 22 134 0 84 -3 113 -12 112 -7 0 -36 -15 -64 -32z"/>
<path d="M10060 14134 c-82 -47 -80 -43 -80 -180 l0 -123 -29 -16 c-56 -28
-61 -39 -61 -135 0 -49 4 -91 9 -95 5 -3 26 4 45 16 l36 21 0 -154 c0 -128 3
-160 19 -195 34 -74 80 -81 181 -26 39 21 73 46 79 60 13 29 14 152 1 173 -8
12 -15 11 -48 -8 -71 -40 -72 -39 -72 111 l0 133 41 24 c74 41 79 50 79 144 0
50 -4 88 -11 91 -6 4 -33 -7 -60 -24 -29 -18 -49 -25 -49 -18 -1 7 -2 59 -3
117 -2 121 -6 125 -77 84z"/>
<path d="M9440 13776 c-30 -18 -61 -43 -67 -57 -15 -29 -18 -895 -3 -919 10
-16 32 -8 108 43 l42 28 0 207 c1 241 11 291 69 329 40 27 45 28 65 7 14 -13
16 -47 16 -219 0 -112 3 -211 6 -219 6 -14 14 -12 63 15 96 52 91 37 91 313
-1 200 -4 249 -18 291 -43 124 -157 103 -269 -50 l-22 -30 0 148 c-1 111 -4
147 -13 147 -7 -1 -38 -16 -68 -34z"/>
<path d="M13280 12625 c-47 -7 -109 -23 -138 -34 -154 -61 -268 -183 -288
-308 -4 -24 -12 -43 -18 -43 -6 0 -35 -16 -64 -35 -104 -71 -154 -177 -153
-329 0 -72 5 -106 27 -208 8 -34 7 -34 45 -5 24 17 44 22 93 22 77 0 111 -22
160 -104 37 -60 71 -81 93 -58 25 26 35 100 40 293 l5 201 83 -43 c151 -81
281 -114 446 -114 72 0 130 6 181 19 73 19 191 71 202 89 3 5 -19 12 -49 16
-29 3 -66 11 -82 17 -27 11 -26 12 40 30 38 11 87 29 109 40 22 11 41 19 43
17 7 -8 58 -249 62 -300 3 -32 9 -55 13 -53 5 3 13 44 20 92 13 90 9 200 -11
278 -11 43 -10 45 25 82 62 65 89 133 94 235 3 55 1 88 -6 88 -5 0 -27 -7 -48
-16 -29 -12 -60 -15 -124 -12 -75 4 -100 11 -206 56 -66 28 -159 61 -205 72
-110 27 -279 34 -389 15z"/>
<path d="M13950 11823 c-22 -8 -50 -34 -50 -47 0 -10 109 -46 139 -46 19 0 12
38 -11 64 -25 26 -54 37 -78 29z"/>
<path d="M13362 11754 c-28 -19 -43 -54 -35 -83 5 -20 7 -19 73 16 71 37 78
52 34 72 -33 15 -45 14 -72 -5z"/>
<path d="M13896 11598 c-35 -50 -5 -102 55 -96 47 4 71 46 49 86 -21 37 -81
44 -104 10z"/>
<path d="M13442 11568 c-66 -32 -17 -145 52 -118 50 19 54 94 7 119 -24 13
-29 13 -59 -1z"/>
<path d="M12790 11331 c-5 -11 -7 -26 -4 -34 12 -33 74 -24 74 11 0 41 -51 57
-70 23z"/>
<path d="M12878 11217 c-16 -6 -28 -13 -28 -17 0 -3 13 -37 30 -75 l29 -70 1
88 c0 48 -1 87 -2 86 -2 -1 -15 -6 -30 -12z"/>
<path d="M18031 9211 c-9 -6 -7 -10 8 -14 12 -3 21 -1 21 3 0 14 -15 19 -29
11z"/>
<path d="M18260 8440 c-14 -10 -23 -21 -20 -23 3 -3 19 6 35 19 35 28 22 32
-15 4z"/>
<path d="M2108 7933 c6 -2 18 -2 25 0 6 3 1 5 -13 5 -14 0 -19 -2 -12 -5z"/>
<path d="M1245 6542 c3 -3 0 -11 -6 -19 -9 -10 -8 -17 1 -28 17 -20 26 -19 26
4 0 11 -4 17 -8 15 -12 -7 -10 10 2 22 7 7 6 11 -5 11 -8 0 -13 -3 -10 -5z"/>
</g>
</svg>
